<?xml version="1.0" standalone="no"?>
<!DOCTYPE svg PUBLIC "-//W3C//DTD SVG 20010904//EN"
 "http://www.w3.org/TR/2001/REC-SVG-20010904/DTD/svg10.dtd">
<svg version="1.0" xmlns="http://www.w3.org/2000/svg"
 width="3000.000000pt" height="1828.000000pt" viewBox="0 0 3000.000000 1828.000000"
 preserveAspectRatio="xMidYMid meet">

<g transform="translate(0.000000,1828.000000) scale(0.100000,-0.100000)"
fill="#000000" stroke="none">
<path d="M7978 13716 c-5 -76 -39 -135 -94 -161 -32 -15 -42 -15 -126 -1 -114
20 -261 20 -353 1 -168 -35 -326 -151 -391 -285 -61 -126 -66 -202 -29 -455
14 -93 25 -171 25 -172 0 -1 15 1 34 4 30 5 39 0 69 -31 20 -20 38 -50 42 -66
16 -72 27 -20 41 190 4 47 9 86 13 88 4 1 6 15 4 30 -2 15 1 68 7 117 5 50 10
100 10 113 0 12 2 22 3 22 2 0 57 -11 122 -25 168 -36 501 -94 570 -99 17 -1
83 -3 148 -4 71 -1 116 -6 112 -11 -3 -6 -6 -55 -6 -110 0 -56 -4 -101 -9
-101 -11 0 -21 30 -13 42 3 7 1 8 -5 4 -7 -4 -12 -3 -12 3 0 5 3 11 8 14 4 2
2 3 -4 1 -11 -2 -44 30 -44 42 0 3 7 3 16 0 8 -3 12 -2 9 4 -3 6 -17 7 -30 4
-12 -3 -26 -1 -29 5 -9 14 -81 -21 -89 -43 -8 -20 7 -29 91 -56 40 -12 75 -27
78 -31 3 -5 10 -7 15 -4 5 4 9 -29 9 -80 0 -54 -4 -84 -10 -80 -6 3 -7 -1 -4
-10 10 -26 19 -8 62 125 75 228 80 265 50 342 -9 24 -7 30 19 52 62 52 113
190 113 306 0 65 -23 177 -43 216 -14 27 -15 28 -22 5 -14 -45 -114 -135 -131
-118 -2 2 -8 24 -13 48 -12 64 -26 92 -63 135 -34 39 -113 94 -134 94 -7 0
-13 -24 -16 -64z"/>
<path d="M19792 13380 c-199 -28 -344 -90 -475 -205 -80 -69 -86 -78 -93 -122
-8 -54 3 -418 14 -475 6 -29 22 -49 85 -103 42 -36 77 -64 78 -63 0 2 20 114
43 250 23 136 45 251 49 254 3 4 28 -2 54 -14 57 -24 164 -53 174 -47 4 3 10
22 13 42 14 77 13 77 54 45 62 -49 181 -104 275 -126 27 -6 27 -6 27 46 l0 52
43 -40 c63 -61 116 -99 180 -130 l57 -28 30 34 c42 49 80 128 80 166 0 43 -60
156 -126 241 -68 86 -150 155 -233 196 -59 29 -75 32 -165 34 -56 1 -129 -2
-164 -7z"/>
<path d="M15345 13229 c-277 -38 -464 -155 -567 -354 -92 -178 -188 -512 -263
-908 -43 -232 -44 -237 -7 -237 15 0 126 -7 247 -15 121 -8 248 -15 281 -15
l62 0 7 121 c7 119 7 121 -18 147 -13 15 -29 37 -36 48 -6 12 -23 25 -37 28
-40 10 -109 63 -139 106 -50 73 -46 220 7 274 35 34 25 42 102 -81 l50 -78 7
35 c4 19 19 134 35 255 15 121 29 222 31 224 1 2 13 -9 25 -25 63 -79 53 -75
152 -64 83 10 201 4 318 -16 l37 -6 16 58 c33 117 27 115 70 18 21 -49 39 -90
40 -91 0 -1 55 -12 120 -23 114 -20 147 -32 132 -46 -3 -3 -16 1 -29 10 -32
23 -71 20 -96 -7 -34 -36 -27 -45 36 -52 88 -10 86 -8 78 -73 -3 -31 -16 -94
-27 -139 -11 -46 -19 -100 -17 -120 3 -33 6 -38 27 -35 34 5 71 -6 71 -22 0
-17 -51 -62 -80 -71 -16 -5 -20 -15 -20 -47 0 -76 -135 -288 -218 -345 l-33
-22 43 -5 c61 -7 570 -37 574 -34 5 6 -72 452 -111 643 -20 99 -53 241 -72
315 -20 74 -40 167 -45 205 -13 105 -55 184 -141 269 -76 76 -168 131 -267
160 -67 20 -250 28 -345 15z"/>
<path d="M26513 13099 c-32 -39 -293 -142 -312 -124 -3 3 1 15 8 26 21 35 5
32 -68 -11 -188 -112 -415 -129 -580 -45 -42 21 -50 22 -55 9 -9 -24 -7 -70 4
-100 9 -22 7 -37 -10 -75 -25 -60 -25 -84 1 -134 34 -65 111 -186 115 -182 2
2 -3 55 -11 117 -8 63 -15 126 -15 141 0 27 1 28 31 17 48 -17 232 -4 314 21
39 12 130 52 204 89 118 58 142 67 200 70 72 3 116 -15 144 -60 8 -13 29 -108
47 -213 38 -230 38 -229 55 -189 14 33 59 74 81 74 8 0 30 32 49 70 19 39 34
70 33 70 -2 0 -18 -4 -36 -9 l-32 -10 0 60 c0 32 -3 59 -7 59 -4 0 -19 -12
-35 -27 -15 -14 -30 -24 -33 -21 -3 3 0 37 7 76 9 54 9 85 0 133 -6 34 -14 64
-17 67 -3 4 -19 1 -35 -5 l-29 -11 -3 66 c-2 53 -5 62 -15 51z"/>
<path d="M7562 12910 c-12 -5 -28 -8 -35 -6 -6 1 -8 1 -4 -2 5 -2 -13 -19 -40
-38 -74 -51 -98 -72 -91 -79 7 -7 254 23 285 35 26 11 25 50 -2 80 -19 21 -72
26 -113 10z"/>
<path d="M4095 12850 c-74 -57 -250 -152 -369 -199 -57 -23 -162 -55 -233 -71
-215 -51 -214 -51 -258 -95 -34 -33 -44 -53 -54 -102 -16 -73 -11 -113 32
-283 31 -119 32 -134 32 -315 0 -197 -6 -242 -51 -389 -13 -44 -22 -81 -20
-84 2 -2 28 10 58 27 30 17 61 31 68 31 8 0 30 15 50 34 35 35 136 76 183 76
24 0 25 2 31 113 14 249 13 261 -17 296 -15 18 -27 38 -27 44 0 7 -21 21 -47
31 -57 24 -125 84 -147 130 -19 40 -21 156 -5 207 23 71 89 92 134 43 24 -26
26 -26 85 -15 80 16 175 48 230 77 42 23 43 24 13 18 -19 -3 -33 -1 -33 4 0
13 113 108 152 128 16 8 46 14 65 12 31 -2 39 -8 50 -35 16 -41 1 -58 -58 -68
-27 -5 -50 -17 -65 -34 -12 -14 -21 -27 -20 -28 5 -6 196 51 266 79 104 41
221 113 278 170 l47 47 7 -26 c4 -15 10 -64 14 -110 4 -50 12 -87 20 -94 20
-16 17 -29 -5 -29 -15 0 -19 -11 -25 -62 -3 -35 -15 -97 -26 -138 -11 -41 -20
-92 -20 -112 l0 -38 45 0 c74 0 75 -45 3 -82 -30 -16 -38 -26 -43 -61 -22
-128 -187 -350 -281 -376 -35 -10 -120 6 -166 30 -11 6 -22 8 -25 5 -8 -8 -22
-85 -23 -122 0 -32 1 -32 66 -43 100 -18 192 -59 241 -107 23 -23 52 -45 64
-49 12 -4 60 -25 107 -46 46 -22 85 -39 86 -39 2 0 6 91 9 203 4 111 13 265
22 342 8 77 24 223 35 325 12 102 23 282 27 400 l5 215 -77 98 -78 98 -36 -34
c-69 -64 -178 -133 -273 -171 -43 -17 -49 -7 -23 32 32 44 60 182 38 182 -5 0
-30 -18 -58 -40z"/>
<path d="M19684 12757 c-34 -18 -74 -44 -90 -57 l-29 -23 94 7 c52 3 116 6
142 6 44 0 49 3 55 25 4 16 0 34 -10 50 -24 37 -84 34 -162 -8z"/>
<path d="M7610 12756 c0 -2 8 -10 18 -17 15 -13 16 -12 3 4 -13 16 -21 21 -21
13z"/>
<path d="M7551 12733 c-14 -9 -22 -12 -18 -7 3 5 -3 10 -13 10 -15 0 -12 -7
16 -38 51 -57 43 -86 -15 -54 -35 19 -49 2 -41 -46 9 -50 26 -68 62 -68 20 0
39 10 57 29 24 25 28 39 30 94 2 58 -1 67 -21 81 -28 20 -28 20 -57 -1z"/>
<path d="M7853 12708 c-6 -13 -18 -64 -29 -115 -10 -50 -20 -90 -24 -88 -3 1
-5 -14 -5 -36 -1 -43 18 -58 42 -33 27 27 103 58 115 46 13 -13 -28 -85 -77
-132 -67 -65 -26 -55 55 14 75 63 94 133 43 160 -19 9 -36 11 -51 5 -13 -5
-29 -6 -34 -2 -6 3 -9 2 -5 -3 3 -5 -6 -15 -19 -21 -22 -10 -24 -9 -20 5 13
40 36 166 36 193 0 35 -13 38 -27 7z"/>
<path d="M20172 12714 c-12 -8 -22 -21 -22 -27 0 -11 161 -90 168 -82 6 6 -30
70 -56 98 -29 31 -57 34 -90 11z"/>
<path d="M7444 12701 c0 -11 3 -18 7 -15 4 2 10 -2 12 -8 3 -7 6 -8 6 -2 1 5
-5 18 -12 28 -12 16 -13 16 -13 -3z"/>
<path d="M8047 12674 c-15 -13 -27 -28 -27 -34 0 -5 -3 -10 -7 -10 -5 0 -8
-20 -8 -45 0 -25 4 -45 8 -45 5 0 6 -4 3 -8 -3 -5 3 -9 12 -10 38 -2 62 10 77
38 15 29 15 30 -7 30 -13 0 -29 4 -37 9 -11 7 -4 12 26 20 33 9 40 15 36 31
-3 10 -15 26 -27 33 -20 13 -24 12 -49 -9z"/>
<path d="M15345 12610 c-109 -19 -109 -19 17 -65 160 -59 154 -58 172 -40 22
23 20 49 -6 80 -18 20 -34 26 -78 29 -30 2 -77 0 -105 -4z"/>
<path d="M19714 12599 c-19 -22 -19 -23 29 -50 9 -5 17 -17 17 -25 0 -13 -7
-15 -35 -10 -31 6 -35 4 -35 -13 0 -53 44 -93 85 -77 38 14 48 127 14 170 -25
31 -49 33 -75 5z"/>
<path d="M8125 12569 c-6 -8 -4 -10 5 -4 10 6 12 4 6 -11 -6 -15 -5 -17 5 -6
9 9 10 15 2 23 -8 8 -13 7 -18 -2z"/>
<path d="M11292 12558 c-19 -19 -14 -32 19 -52 40 -23 32 -42 -16 -38 -37 3
-37 2 -31 -25 12 -49 34 -73 66 -73 39 0 60 32 60 93 0 48 -13 85 -34 99 -17
12 -51 9 -64 -4z"/>
<path d="M26191 12551 c-24 -24 -36 -80 -26 -118 21 -86 104 -82 121 6 7 32 6
32 -29 29 -46 -4 -49 11 -8 39 l32 22 -20 20 c-26 26 -46 26 -70 2z"/>
<path d="M20190 12540 c-36 -36 -18 -130 25 -130 25 0 39 14 49 47 6 19 3 22
-26 25 l-33 4 28 13 c29 15 34 30 15 49 -17 17 -35 15 -58 -8z"/>
<path d="M7606 12535 c4 -8 8 -15 10 -15 2 0 4 7 4 15 0 8 -4 15 -10 15 -5 0
-7 -7 -4 -15z"/>
<path d="M7016 12522 c-12 -12 -5 -20 13 -15 12 3 32 -8 59 -34 38 -36 40 -40
35 -86 -5 -39 -2 -54 16 -78 12 -16 20 -33 17 -38 -3 -5 5 -11 18 -13 19 -4
24 -1 23 13 -1 10 -5 15 -11 12 -5 -4 -7 1 -3 10 4 10 2 16 -5 14 -18 -3 -32
71 -19 100 10 21 8 28 -19 55 -17 16 -28 34 -25 39 4 5 -2 6 -11 2 -13 -5 -15
-3 -9 7 5 8 4 11 -2 7 -6 -4 -24 -2 -41 2 -17 5 -33 7 -36 3z"/>
<path d="M11787 12502 c-23 -25 -22 -94 1 -122 24 -30 57 -20 71 22 15 42 15
41 -19 35 -37 -8 -39 5 -4 30 25 18 25 20 9 36 -21 22 -38 21 -58 -1z"/>
<path d="M25732 12498 c-17 -17 -15 -27 11 -49 l22 -18 -27 -1 c-30 0 -36 -17
-18 -51 12 -21 50 -25 68 -7 19 19 15 102 -6 121 -22 20 -34 21 -50 5z"/>
<path d="M11680 12463 c0 -13 4 -23 9 -23 6 0 9 -12 8 -26 -1 -15 4 -29 11
-31 15 -6 7 34 -14 76 -13 25 -14 25 -14 4z"/>
<path d="M15492 12454 c-20 -19 -27 -20 -52 -11 -26 10 -33 9 -52 -11 l-22
-21 40 -36 39 -35 -45 2 c-44 2 -45 2 -42 -27 14 -116 136 -89 131 30 -1 22 5
58 15 79 21 49 17 57 -12 30z"/>
<path d="M19246 12440 c11 -4 34 -24 51 -44 28 -31 31 -39 22 -68 -11 -40 3
-88 33 -114 l21 -19 -18 28 c-13 21 -16 41 -13 85 4 47 1 62 -16 85 -22 30
-65 57 -88 56 -7 0 -4 -4 8 -9z"/>
<path d="M25900 12440 c0 -5 5 -10 11 -10 5 0 7 5 4 10 -3 6 -8 10 -11 10 -2
0 -4 -4 -4 -10z"/>
<path d="M20041 12414 c0 -11 3 -14 6 -6 3 7 2 16 -1 19 -3 4 -6 -2 -5 -13z"/>
<path d="M15937 12406 c-9 -7 -28 -11 -41 -9 -17 4 -28 -2 -40 -18 -33 -47
-10 -139 34 -139 22 0 50 36 50 63 0 15 -5 18 -25 15 -37 -7 -41 9 -6 26 16 9
34 29 39 46 6 16 10 30 9 30 -1 0 -10 -7 -20 -14z"/>
<path d="M25910 12396 c0 -8 5 -18 10 -21 6 -3 10 1 10 9 0 8 -4 18 -10 21 -5
3 -10 -1 -10 -9z"/>
<path d="M26655 12382 c-50 -31 -59 -49 -60 -120 0 -37 -4 -76 -9 -87 -4 -11
2 -6 13 10 17 23 21 42 19 80 -3 56 17 96 61 120 14 8 22 14 16 15 -5 0 -23
-8 -40 -18z"/>
<path d="M10854 12379 c10 -6 31 -25 46 -43 25 -27 28 -37 23 -77 -5 -45 16
-109 37 -109 5 0 2 12 -6 28 -15 30 -17 66 -5 97 6 14 2 29 -11 47 -18 26 -77
68 -94 68 -5 0 -1 -5 10 -11z"/>
<path d="M20030 12376 c0 -8 4 -17 9 -20 5 -4 7 3 4 14 -6 23 -13 26 -13 6z"/>
<path d="M7017 12343 c3 -7 6 -13 8 -13 2 0 5 6 8 13 3 8 -1 14 -8 14 -7 0
-11 -6 -8 -14z"/>
<path d="M11700 12356 c0 -2 7 -19 14 -37 l15 -34 -1 38 c-1 24 -6 37 -15 37
-7 0 -13 -2 -13 -4z"/>
<path d="M7584 12315 c-18 -13 -18 -14 -1 -15 12 0 16 -4 11 -12 -4 -7 -4 -10
0 -7 4 4 26 -11 49 -32 60 -55 113 -80 160 -72 20 3 37 9 37 13 0 8 59 34 73
31 4 0 6 3 5 8 -2 5 6 17 17 25 31 24 1 20 -88 -9 l-75 -26 -46 22 c-25 13
-42 27 -39 32 3 6 1 7 -6 3 -14 -9 -83 32 -75 45 8 13 1 11 -22 -6z"/>
<path d="M14916 12320 c41 -16 63 -57 63 -117 0 -47 4 -60 25 -82 l26 -26 -20
40 c-20 38 -21 60 -6 97 10 22 -59 98 -88 97 l-21 0 21 -9z"/>
<path d="M3819 12287 c-19 -8 -46 -21 -60 -30 -23 -17 -22 -17 51 -17 41 0
104 -5 139 -10 70 -12 85 -8 55 15 -60 47 -128 63 -185 42z"/>
<path d="M25870 12271 c-13 -26 2 -67 32 -81 l23 -11 -22 20 c-27 23 -30 66
-5 80 16 10 16 10 0 11 -10 0 -22 -9 -28 -19z"/>
<path d="M4335 12269 c-12 -6 -27 -19 -34 -30 -11 -20 -10 -20 31 -14 24 3 57
8 73 10 17 2 32 4 35 5 3 0 -6 10 -19 20 -25 22 -54 24 -86 9z"/>
<path d="M7095 12267 c-14 -11 -15 -16 -5 -22 9 -6 11 -4 5 5 -6 9 -4 12 7 8
9 -4 15 0 15 8 0 17 1 17 -22 1z"/>
<path d="M11717 12261 c-4 -17 -3 -21 5 -13 5 5 8 16 6 23 -3 8 -7 3 -11 -10z"/>
<path d="M20046 12252 c6 -28 4 -32 -12 -26 -16 5 -16 4 -4 -5 8 -6 18 -11 23
-11 10 0 8 42 -3 60 -7 11 -8 6 -4 -18z"/>
<path d="M3377 12243 c12 -2 34 -18 49 -36 21 -25 25 -38 20 -65 -5 -35 13
-94 33 -106 5 -4 3 10 -5 29 -12 30 -13 43 -3 73 11 35 11 36 -29 74 -25 23
-50 37 -64 37 l-23 -2 22 -4z"/>
<path d="M4211 12214 c-12 -47 -11 -115 2 -107 5 3 7 18 4 32 -3 15 -2 45 3
66 12 52 4 58 -9 9z"/>
<path d="M8112 12225 c0 -16 2 -22 5 -12 2 9 2 23 0 30 -3 6 -5 -1 -5 -18z"/>
<path d="M7611 12237 c2 -1 13 -9 24 -17 19 -14 19 -14 6 3 -7 9 -18 17 -24
17 -6 0 -8 -1 -6 -3z"/>
<path d="M7237 12189 c7 -7 15 -10 18 -7 3 3 -2 9 -12 12 -14 6 -15 5 -6 -5z"/>
<path d="M7210 12183 c0 -6 8 -17 18 -24 16 -13 16 -13 2 6 -8 11 -16 22 -17
24 -2 2 -3 0 -3 -6z"/>
<path d="M15740 12180 c0 -7 10 -28 21 -47 20 -33 20 -35 4 -53 -10 -11 -15
-20 -10 -20 4 0 16 10 26 21 18 21 18 22 -6 53 -13 17 -24 35 -23 39 0 5 -3
11 -6 15 -3 3 -6 -1 -6 -8z"/>
<path d="M7257 12147 c-3 -8 1 -14 8 -14 7 0 11 6 8 14 -3 7 -6 13 -8 13 -2 0
-5 -6 -8 -13z"/>
<path d="M7741 12151 c-8 -5 -19 -8 -25 -7 -6 2 -7 1 -3 -2 5 -2 0 -13 -9 -23
-26 -28 -8 -36 26 -11 34 26 64 28 104 7 20 -11 33 -12 39 -6 7 7 -4 17 -34
30 -48 22 -76 26 -98 12z"/>
<path d="M8101 12144 c0 -11 3 -14 6 -6 3 7 2 16 -1 19 -3 4 -6 -2 -5 -13z"/>
<path d="M7250 12056 l0 -63 83 -49 c45 -27 90 -52 100 -56 11 -5 15 -13 11
-19 -4 -8 -3 -9 4 -5 6 4 51 -18 99 -49 48 -30 109 -65 135 -77 27 -12 48 -25
48 -30 0 -4 4 -8 10 -8 6 0 9 44 7 116 l-3 117 -65 19 c-137 42 -353 123 -386
145 -19 13 -36 23 -38 23 -3 0 -5 -29 -5 -64z"/>
<path d="M4210 12083 c1 -11 26 -43 33 -43 4 0 1 11 -5 25 -10 23 -28 35 -28
18z"/>
<path d="M11425 12080 c18 -7 16 -8 -10 -12 -22 -4 -17 -5 18 -7 27 0 57 -6
68 -11 10 -6 19 -8 19 -5 0 7 -88 45 -103 44 -7 0 -3 -4 8 -9z"/>
<path d="M19875 12074 c25 -20 158 -16 177 5 11 11 11 13 0 7 -20 -12 -161
-16 -167 -5 -4 5 -12 9 -18 9 -7 0 -3 -8 8 -16z"/>
<path d="M26138 12083 c7 -3 16 -2 19 1 4 3 -2 6 -13 5 -11 0 -14 -3 -6 -6z"/>
<path d="M11330 12063 c-14 -7 -18 -13 -10 -13 17 0 47 17 40 23 -3 2 -16 -2
-30 -10z"/>
<path d="M25983 12073 c9 -2 23 -2 30 0 6 3 -1 5 -18 5 -16 0 -22 -2 -12 -5z"/>
<path d="M26040 12070 c-10 -6 -2 -7 25 -3 49 7 58 13 19 13 -16 0 -36 -5 -44
-10z"/>
<path d="M15720 12040 c-9 -6 -10 -10 -3 -10 6 0 15 5 18 10 8 12 4 12 -15 0z"/>
<path d="M4245 12020 c4 -6 11 -8 16 -5 14 9 11 15 -7 15 -8 0 -12 -5 -9 -10z"/>
<path d="M4201 11970 c-13 -11 -19 -20 -13 -20 5 0 20 9 33 20 13 10 20 19 14
19 -5 0 -21 -9 -34 -19z"/>
<path d="M15523 11933 c9 -2 23 -2 30 0 6 3 -1 5 -18 5 -16 0 -22 -2 -12 -5z"/>
<path d="M15571 11909 c20 -4 49 -4 65 1 23 7 16 8 -36 8 -58 0 -61 -1 -29 -9z"/>
<path d="M4045 11869 c-28 -6 -28 -7 -5 -9 14 -1 51 -5 82 -9 31 -4 54 -3 52
1 -3 4 -14 8 -24 8 -10 0 -22 4 -25 10 -6 10 -30 10 -80 -1z"/>
<path d="M15598 11873 c7 -3 16 -2 19 1 4 3 -2 6 -13 5 -11 0 -14 -3 -6 -6z"/>
<path d="M6980 11860 c-9 -6 -10 -10 -3 -10 6 0 15 5 18 10 8 12 4 12 -15 0z"/>
<path d="M7811 11787 c2 -1 13 -9 24 -17 19 -14 19 -14 6 3 -7 9 -18 17 -24
17 -6 0 -8 -1 -6 -3z"/>
<path d="M15484 11689 c-9 -15 1 -21 32 -17 l29 3 -27 12 c-18 8 -29 9 -34 2z"/>
<path d="M26536 11543 c-3 -49 -8 -144 -11 -213 -29 -670 -47 -1100 -59 -1445
-9 -225 -18 -475 -21 -554 -6 -138 -6 -144 11 -130 54 43 53 37 120 445 36
218 63 398 61 400 -2 3 -32 9 -66 15 -50 9 -61 14 -57 28 6 17 111 578 146
776 28 157 43 201 91 266 102 138 246 206 379 178 90 -19 144 -53 194 -124
l28 -40 -7 35 c-24 122 -235 286 -470 364 -69 24 -307 86 -326 86 -4 0 -10
-39 -13 -87z"/>
<path d="M22800 11557 c-19 -17 -67 -60 -105 -95 -77 -69 -67 -70 40 -6 99 60
140 97 132 117 -9 25 -28 20 -67 -16z"/>
<path d="M19114 11542 c6 -10 -35 -32 -59 -32 -8 0 -14 -5 -12 -10 1 -6 -20
-23 -48 -38 -27 -15 -53 -31 -56 -36 -9 -11 -39 0 -39 14 0 6 5 8 11 4 6 -3
28 2 50 12 28 14 37 24 33 37 -3 9 -1 17 5 17 6 0 11 -4 11 -10 0 -5 5 -10 11
-10 5 0 8 4 4 10 -3 5 13 14 35 20 22 6 40 13 40 16 0 8 -63 -6 -76 -17 -6 -5
-13 -7 -16 -4 -8 9 -108 -27 -102 -36 3 -5 -3 -9 -13 -9 -24 0 -49 -17 -40
-27 5 -4 12 -2 16 6 6 9 10 7 14 -9 4 -15 2 -20 -7 -17 -7 3 -19 1 -27 -4 -10
-6 -8 -9 11 -10 14 -1 32 0 40 1 10 1 9 -3 -5 -14 -17 -13 -23 -13 -42 0 -26
16 -33 17 -33 5 0 -5 9 -13 20 -16 11 -4 17 -11 14 -17 -4 -6 -9 -6 -13 -1 -3
5 -15 13 -25 17 -19 7 -19 6 -1 -14 16 -18 16 -20 2 -20 -10 0 -17 -7 -17 -15
0 -15 -16 -20 -55 -17 -15 2 -17 0 -6 -7 11 -7 9 -11 -9 -21 -19 -10 -22 -10
-18 2 4 9 -5 19 -23 27 -16 7 -27 16 -24 21 3 5 -1 11 -7 14 -7 3 -4 4 7 3 11
-2 19 -9 18 -15 -5 -21 14 -13 50 22 19 19 51 39 71 46 20 6 38 16 41 21 8 12
-2 11 -25 -1 -12 -6 -21 -7 -25 0 -3 6 -19 3 -39 -6 -25 -13 -32 -22 -30 -40
1 -13 -2 -24 -8 -24 -6 0 -8 7 -5 15 4 8 1 17 -6 21 -7 4 -9 3 -4 -1 4 -5 -7
-14 -25 -20 -19 -6 -32 -17 -30 -24 2 -9 -3 -11 -13 -7 -9 3 -13 2 -10 -4 3
-5 -3 -8 -12 -7 -21 1 -73 -31 -73 -45 0 -5 -6 -6 -12 -2 -10 6 -10 5 -1 -7
10 -12 10 -18 0 -29 -10 -12 -9 -12 3 -3 15 11 21 13 40 13 5 0 8 12 7 28 -1
17 3 26 11 25 6 -2 12 1 12 5 0 10 21 9 62 -2 17 -5 25 -13 21 -22 -3 -8 0
-14 7 -14 6 0 8 -4 5 -10 -3 -5 -11 -10 -16 -10 -6 0 -7 5 -4 10 4 7 -3 8 -22
4 -36 -9 -43 -13 -43 -26 0 -6 12 -8 33 -4 27 5 29 4 12 -6 -11 -6 -43 -28
-71 -49 -36 -27 -58 -36 -73 -32 -21 5 -21 6 -3 19 11 7 22 23 25 34 4 16 0
20 -17 20 -25 0 -51 -43 -39 -63 4 -8 2 -8 -9 1 -12 10 -18 9 -28 -3 -7 -8
-17 -12 -22 -9 -6 4 -6 9 2 14 8 5 8 9 -3 13 -9 3 -21 -2 -29 -11 -11 -13 -11
-14 1 -7 11 6 13 4 8 -9 -4 -11 -3 -15 4 -10 6 3 4 -7 -5 -24 -17 -33 -42 -47
-52 -30 -5 7 -2 8 6 3 9 -5 11 -4 6 3 -4 7 0 12 11 13 11 0 13 3 5 6 -15 6
-44 -16 -36 -28 3 -5 2 -9 -3 -9 -15 0 -57 -72 -55 -95 1 -13 -5 -28 -13 -35
-11 -9 -15 -9 -15 -1 0 6 5 11 10 11 6 0 10 6 10 13 -1 6 -9 2 -20 -11 -11
-13 -16 -30 -13 -40 3 -9 2 -14 -2 -10 -5 5 -20 -9 -34 -30 -14 -20 -23 -38
-21 -38 3 -1 -2 -10 -11 -20 -23 -27 -34 -49 -21 -40 15 9 20 -14 11 -54 -5
-20 -4 -39 1 -44 6 -6 10 -15 10 -20 0 -6 -5 -3 -11 7 -8 14 -14 16 -25 6 -8
-6 -14 -17 -14 -24 0 -7 -9 -19 -19 -26 -20 -15 -42 -67 -22 -55 6 4 13 -5 16
-21 4 -15 10 -34 14 -42 4 -8 -1 -44 -11 -80 -10 -35 -16 -67 -13 -69 3 -3 5
1 5 8 0 7 3 11 6 8 3 -3 -7 -30 -23 -59 -19 -38 -29 -49 -31 -36 -2 11 6 29
18 42 20 22 21 25 7 39 -22 22 -30 20 -67 -16 -18 -18 -30 -27 -26 -20 9 14
-20 17 -29 2 -3 -5 -1 -10 5 -10 6 0 4 -7 -5 -17 -13 -12 -15 -26 -10 -60 7
-46 -6 -55 -32 -23 -6 9 -15 11 -20 6 -4 -5 -2 -11 4 -13 10 -3 9 -8 -2 -20
-14 -14 -13 -18 10 -39 33 -30 35 -30 35 5 0 18 6 31 16 35 23 9 29 0 14 -19
-7 -8 -14 -25 -16 -38 -2 -12 -6 -33 -10 -47 -6 -24 -6 -24 9 -5 21 26 21 17
1 -23 -9 -18 -23 -31 -32 -31 -15 1 -15 2 1 6 13 3 16 11 11 31 -10 48 -12 50
-38 45 -24 -5 -26 -3 -26 32 0 38 0 38 -20 20 -20 -18 -20 -18 -18 6 2 13 15
32 31 41 27 18 36 38 17 38 -5 0 -10 -4 -10 -10 0 -5 -5 -10 -12 -10 -6 0 -4
7 5 18 10 10 17 25 17 33 0 8 -9 1 -20 -16 -11 -16 -18 -35 -16 -42 3 -6 -2
-14 -9 -17 -9 -3 -12 -12 -8 -22 4 -11 2 -15 -4 -11 -5 4 -15 -5 -21 -18 -9
-19 -9 -24 1 -22 14 2 11 -31 -5 -50 -20 -24 -28 -13 -12 15 l16 27 -22 -25
c-19 -22 -20 -25 -6 -36 13 -9 14 -17 5 -43 -6 -17 -15 -31 -21 -31 -6 0 -7
-7 -4 -16 3 -8 2 -12 -4 -9 -6 3 -10 -3 -10 -13 0 -11 -7 -25 -15 -32 -8 -7
-12 -16 -9 -21 3 -5 -2 -16 -11 -25 -15 -15 -15 -14 -10 9 4 15 2 28 -6 32 -8
5 -10 4 -5 -3 4 -6 2 -20 -4 -31 -13 -25 -2 -60 12 -39 7 9 8 7 2 -7 -4 -11
-7 -30 -7 -42 1 -13 -2 -21 -6 -19 -4 3 -13 -10 -21 -27 -7 -17 -15 -26 -17
-20 -2 6 5 30 16 52 10 23 15 39 10 35 -5 -3 -8 4 -6 15 1 11 -2 20 -8 20 -5
0 -9 -9 -8 -20 2 -14 -1 -18 -10 -13 -6 4 -9 4 -5 -1 4 -4 -2 -19 -13 -34 -18
-23 -19 -27 -5 -37 20 -14 21 -28 1 -20 -8 3 -15 1 -15 -5 0 -6 -4 -7 -10 -4
-6 3 -7 -1 -4 -9 4 -9 1 -16 -6 -16 -10 0 -10 -3 0 -15 10 -12 8 -21 -10 -47
-18 -28 -20 -29 -14 -8 14 52 14 54 -4 15 -11 -22 -16 -42 -12 -45 4 -3 10
-17 14 -33 7 -30 -9 -34 -32 -7 -11 13 -12 12 -4 -5 10 -22 10 -48 -2 -84 -8
-22 -9 -23 -19 -6 -9 17 -11 16 -23 -6 -13 -24 -38 -95 -39 -114 0 -5 -4 -15
-7 -21 -14 -22 -16 -101 -3 -125 l13 -24 10 35 c6 19 11 27 11 17 2 -36 31 9
31 47 0 20 5 45 12 55 9 15 7 25 -10 54 -17 27 -20 40 -13 58 7 17 10 19 10 7
1 -27 20 -31 30 -6 7 19 9 17 9 -17 0 -102 6 -170 13 -145 l7 25 1 -27 c1 -15
-4 -30 -10 -34 -6 -3 -8 -18 -5 -33 3 -14 3 -20 0 -13 -8 17 -24 15 -24 -3 0
-14 12 -20 33 -16 5 1 6 -3 3 -8 -3 -5 1 -14 9 -21 8 -7 15 -21 15 -32 0 -11
5 -16 11 -13 6 4 8 13 5 21 -8 22 14 28 32 9 10 -10 11 -15 5 -11 -15 8 -18
-10 -3 -19 6 -3 10 -14 9 -23 0 -11 -2 -13 -6 -4 -4 10 -8 10 -19 1 -15 -13
-20 -54 -5 -44 14 8 21 -9 11 -25 -7 -12 -10 -12 -16 3 -9 25 -23 21 -21 -6 3
-29 28 -60 98 -119 52 -43 58 -46 70 -31 12 14 12 16 -1 11 -9 -3 -25 1 -35 9
-19 15 -18 15 9 9 26 -6 28 -5 17 8 -11 13 -11 16 3 16 9 0 16 8 16 20 0 11 4
20 8 20 5 0 9 -14 9 -30 0 -20 -3 -26 -9 -18 -6 10 -8 9 -8 -4 0 -9 5 -20 11
-23 7 -5 5 -13 -6 -25 -15 -17 -14 -19 17 -41 18 -13 44 -33 57 -46 14 -12 28
-20 33 -17 4 3 8 1 8 -4 0 -10 101 -84 107 -78 9 9 -10 32 -29 33 -11 1 -26 7
-32 14 -8 9 -7 10 7 6 9 -4 17 -2 17 3 0 5 11 20 25 34 27 27 19 42 -25 49
-13 2 -26 9 -28 15 -2 7 -15 12 -28 12 -22 0 -29 -10 -25 -33 1 -5 -3 -6 -9
-2 -12 7 -14 42 -2 48 4 3 22 8 41 12 26 5 32 4 26 -6 -6 -9 -4 -11 8 -6 11 4
14 2 11 -7 -3 -8 4 -16 15 -19 40 -10 21 27 -29 59 -50 33 -70 30 -70 -8 0
-12 -7 -18 -21 -18 -13 0 -18 -4 -13 -11 5 -9 -1 -10 -22 -5 -28 7 -27 6 9
-19 20 -14 37 -30 37 -36 0 -5 -18 4 -40 22 -38 31 -44 49 -14 49 26 0 28 30
3 52 -16 14 -20 22 -11 25 6 3 10 9 6 14 -3 5 0 9 5 9 6 0 11 5 11 11 0 6 -7
9 -14 6 -10 -4 -13 -1 -9 9 3 7 7 14 10 14 11 0 29 -26 25 -38 -2 -6 1 -12 7
-12 6 0 11 -7 11 -15 0 -8 7 -15 15 -15 18 0 19 12 3 29 -7 7 19 -10 57 -39
39 -28 72 -56 73 -61 2 -5 10 -9 18 -9 17 0 19 -17 2 -23 -7 -2 -3 -2 10 0 12
2 33 -4 45 -13 22 -16 22 -16 -8 -11 l-30 6 28 -12 c15 -6 27 -19 27 -29 0
-14 -8 -18 -40 -18 -28 0 -40 -4 -40 -15 0 -17 36 -39 50 -30 5 3 20 1 32 -6
19 -9 21 -9 11 1 -9 10 -9 19 3 41 17 34 24 35 50 11 10 -10 27 -21 37 -25 10
-4 16 -11 13 -16 -3 -5 8 -14 25 -21 21 -9 27 -16 20 -23 -8 -8 -18 -4 -33 13
-13 14 -22 28 -20 32 5 16 -63 2 -76 -15 -10 -13 -18 -15 -32 -7 -24 13 -33
13 -25 0 9 -14 -8 -13 -23 2 -9 9 -15 9 -24 0 -9 -9 -9 -15 -2 -20 5 -4 31
-22 56 -40 27 -19 49 -28 53 -22 3 5 11 10 17 10 7 0 6 -5 -1 -14 -10 -12 -8
-17 7 -25 11 -6 22 -7 26 -4 3 3 6 2 6 -4 0 -6 32 -30 71 -53 57 -34 73 -39
85 -29 8 7 13 18 10 24 -2 7 0 18 6 26 8 11 9 11 5 -3 -3 -9 1 -19 9 -22 8 -3
14 -10 14 -15 0 -6 -6 -8 -13 -5 -8 3 -19 -2 -26 -10 -10 -12 -9 -17 8 -25 16
-9 22 -8 31 8 5 11 10 27 10 37 0 10 3 14 6 11 9 -8 44 51 188 315 l118 217
88 -75 89 -75 -28 -47 -28 -48 186 1 c173 0 189 -2 236 -23 27 -12 58 -30 68
-40 19 -17 19 -14 13 98 -4 63 -13 257 -21 430 -21 426 -117 2144 -128 2275
-1 20 -8 31 -21 33 -10 2 -16 0 -12 -6z m-145 -62 c-6 -5 -19 -6 -27 -2 -13 4
-12 7 4 12 23 9 41 1 23 -10z m-193 -65 c-11 -8 -25 -15 -30 -15 -6 1 0 7 14
15 32 19 40 18 16 0z m-71 -55 c3 -5 2 -10 -4 -10 -5 0 -13 5 -16 10 -3 6 -2
10 4 10 5 0 13 -4 16 -10z m-185 -219 c0 -4 -11 -20 -25 -35 -13 -14 -21 -26
-18 -26 3 0 1 -6 -5 -12 -5 -7 -24 -38 -40 -68 -17 -30 -35 -56 -41 -58 -17
-6 -13 47 4 64 13 14 15 14 15 -1 0 -9 5 -13 10 -10 14 9 12 17 -11 44 -17 21
-22 22 -30 10 -5 -7 -9 -24 -9 -35 0 -15 -8 -23 -25 -26 -23 -5 -30 2 -25 27
1 6 -2 7 -6 2 -10 -10 -12 -97 -2 -90 5 2 6 13 3 24 -5 14 -2 19 10 19 13 0
16 -7 13 -30 -4 -24 -2 -27 9 -19 16 14 17 -3 1 -19 -6 -6 -9 -15 -5 -19 4 -3
14 2 22 13 19 26 19 4 -1 -24 -8 -12 -20 -19 -26 -16 -6 4 -8 -1 -4 -13 4 -12
-2 -27 -15 -42 -11 -12 -22 -28 -23 -34 -6 -24 -25 -62 -25 -49 -1 7 -8 20
-16 29 -20 19 -11 30 10 13 12 -10 15 -10 15 5 0 9 -11 26 -25 37 -14 11 -25
26 -25 34 0 8 -4 12 -10 9 -5 -3 -10 -1 -10 6 0 8 -5 7 -17 -2 -16 -13 -17
-12 -4 3 7 10 17 15 22 12 5 -3 9 5 9 18 l1 23 17 -21 c19 -22 31 -17 46 21
12 30 15 96 4 89 -15 -9 8 31 27 46 8 7 24 13 35 14 11 0 20 5 19 9 -1 13 43
47 52 41 5 -3 9 0 9 6 0 6 4 8 10 5 5 -3 15 3 22 15 12 19 58 29 58 11z m-240
-205 c0 -2 -8 -10 -17 -17 -16 -13 -17 -12 -4 4 13 16 21 21 21 13z m-50 -138
c0 -11 7 -41 16 -68 12 -36 13 -53 5 -67 -6 -10 -11 -12 -11 -5 -1 33 -49 -6
-50 -40 0 -28 -20 -21 -20 7 0 13 8 29 18 35 16 9 16 11 -1 21 -17 10 -17 11
2 28 13 12 17 22 11 31 -6 9 -4 17 3 22 8 5 7 8 -3 8 -33 0 -40 22 -17 46 24
25 47 17 47 -18z m0 -164 c0 -4 -12 -28 -27 -55 -17 -32 -30 -46 -36 -40 -6 6
-4 15 6 25 8 9 21 29 29 46 11 27 28 41 28 24z m-67 -28 c6 -15 -1 -26 -15
-26 -4 0 -8 6 -8 14 0 8 -6 17 -12 19 -7 3 -3 6 8 6 12 1 24 -5 27 -13z m7
-96 c0 -5 -7 -7 -15 -4 -8 4 -15 8 -15 10 0 2 7 4 15 4 8 0 15 -4 15 -10z
m-26 -45 c-4 -8 -8 -15 -10 -15 -2 0 -4 7 -4 15 0 8 4 15 10 15 5 0 7 -7 4
-15z m-24 -54 c0 -6 -4 -13 -10 -16 -5 -3 -10 1 -10 9 0 9 5 16 10 16 6 0 10
-4 10 -9z m-70 -60 c0 -6 -4 -12 -9 -15 -5 -3 -11 -18 -14 -33 -3 -16 -8 -39
-12 -53 -7 -24 -7 -24 8 -5 9 11 17 17 17 14 0 -10 -71 -149 -76 -149 -9 0 8
45 27 69 19 24 17 69 -3 82 -5 3 -3 9 6 12 9 4 16 18 16 35 0 27 15 52 32 52
4 0 8 -4 8 -9z m-219 -216 c5 4 9 1 9 -4 0 -6 -6 -11 -12 -12 -10 0 -10 -2 0
-6 6 -2 12 -9 12 -14 0 -6 -4 -8 -8 -5 -4 2 -14 -9 -21 -25 -20 -44 -26 -26
-8 20 10 25 13 42 7 46 -6 3 -10 12 -10 18 0 7 5 4 11 -6 6 -9 14 -15 20 -12z
m0 -82 c-12 -20 -14 -14 -5 12 4 9 9 14 11 11 3 -2 0 -13 -6 -23z m36 -73 c-6
-22 -15 -40 -19 -40 -4 0 -8 -7 -8 -15 0 -24 19 -17 26 10 3 14 10 25 15 25 5
0 9 9 9 20 0 11 4 20 10 20 5 0 6 -8 2 -17 -32 -72 -43 -92 -51 -98 -6 -3 -7
-13 -4 -23 6 -15 5 -15 -9 -2 -8 8 -25 22 -37 30 -13 9 -21 25 -21 42 0 24 4
28 28 28 23 0 30 6 41 35 17 48 31 36 18 -15z m-107 -44 c0 -7 -6 -19 -14 -25
-17 -14 -10 -78 11 -99 11 -11 13 -8 13 17 0 21 5 31 16 31 9 0 12 -5 8 -11
-4 -7 -8 -21 -9 -33 -1 -11 -3 -24 -4 -28 -2 -12 -31 3 -40 21 -5 9 -12 37
-16 64 -6 41 -5 47 10 47 11 0 15 5 11 15 -3 8 -1 15 4 15 6 0 10 -6 10 -14z
m58 -127 c-6 -16 -12 -28 -15 -26 -7 7 8 57 18 57 4 0 3 -14 -3 -31z m-175
-16 c-8 -25 -24 -43 -35 -43 -5 0 0 14 12 30 24 34 32 38 23 13z m28 -60 c-12
-20 -14 -14 -5 12 4 9 9 14 11 11 3 -2 0 -13 -6 -23z m116 5 c-3 -8 -6 -5 -6
6 -1 11 2 17 5 13 3 -3 4 -12 1 -19z m-100 -40 c-3 -8 -6 -5 -6 6 -1 11 2 17
5 13 3 -3 4 -12 1 -19z m56 -15 c7 2 12 11 11 19 -1 8 5 15 12 15 9 0 6 -13
-9 -43 -12 -23 -24 -42 -27 -42 -20 0 -50 -17 -50 -29 0 -8 -7 -21 -15 -29
-13 -14 -17 -14 -30 0 -8 8 -15 26 -15 40 0 22 4 26 29 26 17 0 33 5 37 11 5
8 9 8 14 -1 4 -7 13 -9 19 -6 16 10 13 36 -4 36 -18 0 -19 12 -2 29 10 10 13
8 15 -9 2 -12 9 -19 15 -17z m-134 -47 c-1 -20 -1 -21 -6 -1 -3 11 -9 24 -14
30 -5 5 -9 14 -9 20 0 5 7 1 15 -9 8 -11 14 -29 14 -40z m-24 -23 c-5 -15 -8
-35 -7 -43 1 -12 0 -12 -5 -1 -4 11 -7 11 -14 0 -7 -11 -9 -10 -9 4 0 9 4 17
9 17 5 0 12 14 16 31 4 17 9 28 12 25 3 -3 2 -18 -2 -33z m125 -18 c0 -8 -5
-15 -11 -15 -6 0 -8 -7 -4 -17 4 -12 3 -15 -4 -8 -12 12 -3 55 10 55 5 0 9 -7
9 -15z m662 -157 c-2 -84 -5 -155 -8 -157 -6 -6 -149 115 -149 127 0 11 146
182 155 182 3 0 4 -69 2 -152z m-774 95 c-2 -16 -10 -36 -19 -46 -14 -15 -15
-25 -7 -55 10 -37 25 -55 40 -46 15 10 8 34 -8 27 -14 -5 -14 -3 -3 15 9 14
16 17 20 10 5 -8 12 -2 20 15 7 15 16 27 20 27 4 0 -6 -27 -22 -60 -16 -34
-35 -60 -44 -60 -8 0 -15 -9 -15 -19 0 -11 -6 -22 -12 -24 -10 -4 -10 -7 0
-15 10 -7 8 -18 -8 -53 -18 -40 -20 -33 -4 22 4 13 1 25 -7 29 -10 7 -10 19 1
65 13 52 12 59 -3 70 -9 7 -17 18 -17 24 0 15 25 41 38 41 5 0 12 14 16 30 7
38 19 40 14 3z m32 -63 c0 -5 -2 -10 -4 -10 -3 0 -8 5 -11 10 -3 6 -1 10 4 10
6 0 11 -4 11 -10z m-172 -127 c-1 -16 -7 -31 -13 -35 -5 -4 -13 -31 -16 -60
-8 -53 -8 -53 -3 7 2 33 6 69 8 80 3 11 5 23 5 28 1 4 6 7 12 7 6 0 9 -12 7
-27z m113 -196 c-9 -9 -11 -8 -6 4 4 10 2 20 -4 24 -6 3 -11 11 -11 18 0 6 7
1 16 -12 13 -17 14 -25 5 -34z m112 -84 c5 -8 27 -27 49 -43 23 -17 34 -30 26
-30 -9 0 -21 7 -28 15 -17 20 -25 19 -27 -4 -1 -11 6 -21 18 -24 21 -6 26 -27
6 -27 -13 0 -43 40 -39 53 4 13 -23 7 -43 -11 -12 -9 -24 -26 -28 -36 -7 -19
-8 -18 -27 2 -21 22 -28 44 -8 24 9 -9 17 -5 35 14 12 14 23 29 23 35 0 14 38
11 43 -3 4 -10 6 -10 6 -1 1 7 -14 27 -31 44 -29 27 -30 30 -8 19 14 -7 29
-19 33 -27z m-5 -100 c-4 -22 -22 -20 -26 1 -2 10 3 16 13 16 10 0 15 -7 13
-17z m-28 -44 c11 -19 12 -19 24 -3 10 13 17 15 32 6 16 -10 16 -11 3 -12 -9
0 -19 -7 -23 -15 -5 -13 -9 -13 -26 -3 -11 7 -20 18 -20 25 0 6 -6 14 -12 16
-10 4 -10 6 -1 6 7 1 17 -8 23 -20z m230 -59 c0 -5 -7 -10 -15 -10 -8 0 -15 5
-15 10 0 6 7 10 15 10 8 0 15 -4 15 -10z m44 -90 c9 0 12 -9 8 -25 -2 -14 -8
-22 -13 -19 -5 3 -7 9 -4 14 3 5 1 11 -4 14 -4 3 -8 -2 -7 -12 1 -17 -5 -22
-25 -22 -8 0 -9 4 0 13 11 14 5 27 -13 27 -6 0 -4 -5 4 -10 12 -8 9 -9 -10 -7
-14 2 -24 8 -23 13 2 11 43 23 61 18 8 -2 19 -4 26 -4z m241 -131 c2 -12 -3
-15 -21 -11 -17 3 -24 0 -24 -11 0 -8 5 -17 12 -19 20 -7 18 -37 -4 -35 -17 1
-17 3 -3 13 14 11 14 12 -1 18 -9 3 -22 2 -29 -4 -9 -7 -16 -5 -26 7 -9 11
-10 14 -1 9 6 -4 12 -3 12 3 0 15 -21 25 -29 13 -4 -7 -15 -4 -30 8 l-25 18
30 -2 c16 -1 35 -5 42 -9 6 -5 17 -5 24 -1 6 4 8 3 4 -4 -3 -6 -2 -14 4 -17 6
-4 10 -3 9 2 -6 32 2 44 28 41 15 -2 27 -10 28 -19z m164 -57 c7 -7 11 -15 8
-19 -3 -3 -18 7 -32 21 -30 30 -58 35 -48 9 4 -11 2 -15 -3 -10 -5 5 -9 19 -9
32 l-1 24 36 -22 c19 -11 41 -27 49 -35z m-90 2 c14 -31 13 -32 -26 -43 -52
-15 -81 25 -40 54 31 22 52 18 66 -11z m91 -39 c10 -12 7 -15 -17 -21 -15 -3
-37 -8 -48 -10 -18 -5 -18 -4 -2 6 9 6 17 18 17 25 0 19 34 19 50 0z m50 0
c14 -16 10 -18 -14 -9 -9 3 -16 10 -16 15 0 14 16 11 30 -6z m-144 -34 c-9
-14 23 -22 44 -11 29 16 38 11 10 -6 l-25 -15 25 7 c20 5 23 4 13 -7 -10 -10
-20 -9 -53 6 -41 18 -52 35 -24 35 8 0 13 -4 10 -9z m141 -6 c4 -4 2 -5 -4 -1
-7 4 -13 2 -13 -4 0 -6 -4 -8 -10 -5 -5 3 -10 10 -10 15 0 10 27 7 37 -5z"/>
<path d="M18476 11114 c-5 -14 -4 -15 9 -4 17 14 19 20 6 20 -5 0 -12 -7 -15
-16z"/>
<path d="M18433 11065 c-9 -25 4 -29 17 -6 7 15 7 21 0 21 -6 0 -13 -7 -17
-15z"/>
<path d="M18293 10865 c-15 -16 -18 -75 -4 -75 15 0 37 44 33 68 -4 25 -12 27
-29 7z"/>
<path d="M18190 10801 c0 -6 5 -13 10 -16 6 -3 10 1 10 9 0 9 -4 16 -10 16 -5
0 -10 -4 -10 -9z"/>
<path d="M18220 10706 c0 -13 7 -26 15 -30 16 -6 18 -2 9 32 -8 29 -24 28 -24
-2z"/>
<path d="M17820 9890 c0 -5 5 -10 10 -10 6 0 10 5 10 10 0 6 -4 10 -10 10 -5
0 -10 -4 -10 -10z"/>
<path d="M18205 8590 c-3 -5 1 -10 10 -10 9 0 13 5 10 10 -3 6 -8 10 -10 10
-2 0 -7 -4 -10 -10z"/>
<path d="M20060 11491 c0 -10 39 -360 90 -801 17 -146 53 -461 80 -700 27
-239 88 -772 135 -1184 47 -412 84 -750 83 -752 -2 -1 -255 -5 -564 -9 l-561
-8 -6 174 c-4 96 -7 210 -7 254 l0 80 -76 48 c-81 51 -91 52 -139 13 l-30 -24
30 -23 c79 -62 103 -94 144 -198 22 -56 41 -108 41 -115 0 -13 -61 -76 -73
-76 -4 0 -7 8 -7 18 0 33 -51 122 -88 152 -51 42 -58 38 -24 -12 16 -24 45
-73 65 -109 l36 -66 -33 -33 c-38 -36 -56 -33 -56 9 0 42 -47 127 -88 159 -61
47 -65 46 -29 -4 19 -27 53 -84 76 -128 39 -74 40 -79 24 -92 -37 -28 -57 -17
-114 63 l-54 77 -125 17 c-181 24 -176 22 -207 90 l-27 59 -14 -27 c-8 -16
-16 -29 -17 -31 -2 -2 -37 16 -80 38 -42 23 -78 40 -80 38 -7 -6 15 -565 24
-646 11 -89 26 -113 88 -143 42 -21 66 -24 178 -27 72 -2 157 1 190 6 33 5 62
6 65 2 5 -8 42 -396 154 -1600 l41 -445 -32 -240 c-43 -320 -135 -1009 -178
-1326 -40 -296 -40 -289 -20 -289 19 0 19 -11 1 -55 -17 -40 -86 -267 -115
-377 -26 -97 -37 -188 -23 -188 12 0 1105 -176 1177 -190 113 -21 199 -30 204
-22 4 5 167 6 391 1 212 -4 485 -8 608 -8 l222 -1 0 78 c0 50 -5 85 -14 97 -7
11 -68 44 -134 74 l-121 53 21 29 c11 15 18 35 15 43 -8 20 -63 21 -97 1 -14
-8 -33 -14 -43 -15 -17 0 -17 2 -3 22 35 50 2 76 -65 53 -57 -20 -81 -12 -50
16 26 25 24 62 -3 67 -11 2 -37 -2 -58 -9 -45 -15 -46 -13 -103 94 l-36 67 34
0 35 0 6 133 c4 72 22 515 40 983 l32 851 -33 229 c-66 457 -283 2066 -283
2100 0 18 8 23 47 29 112 17 273 95 309 150 43 65 -14 695 -152 1684 -19 139
-33 255 -32 257 2 1 48 -27 103 -63 117 -76 250 -142 355 -175 60 -18 98 -23
186 -23 107 0 112 1 185 37 188 93 423 332 681 693 97 137 198 291 198 303 0
14 -430 287 -446 284 -8 -2 -14 2 -14 8 0 6 -14 19 -31 29 l-31 19 -52 -62
c-42 -48 -51 -64 -43 -77 6 -9 15 -16 21 -15 19 3 37 17 32 25 -3 4 3 17 13
28 12 13 16 25 10 34 -11 21 3 40 21 29 13 -8 12 -15 -6 -52 -12 -24 -24 -51
-28 -60 -3 -11 -15 -18 -30 -18 -13 0 -26 -3 -29 -7 -2 -5 -2 -3 -1 4 2 6 -3
16 -10 22 -10 9 -23 0 -55 -36 -23 -27 -53 -59 -67 -73 -14 -14 -22 -29 -18
-33 4 -4 3 -7 -2 -7 -6 0 -21 -14 -33 -31 -13 -18 -19 -29 -12 -25 6 4 11 1
11 -8 0 -9 -7 -16 -15 -16 -8 0 -15 6 -15 13 0 8 -3 7 -9 -3 -6 -8 -7 -18 -5
-22 3 -5 1 -7 -4 -6 -9 3 -62 -54 -62 -66 0 -4 11 1 25 10 24 16 25 16 25 -8
0 -13 -5 -29 -11 -35 -6 -6 -7 -13 -2 -16 4 -3 17 7 27 21 11 14 14 22 8 18
-8 -5 -12 0 -12 14 0 12 4 19 9 16 5 -4 19 6 30 21 17 24 22 26 31 13 9 -13
11 -13 20 0 7 11 4 20 -13 33 -12 10 -16 15 -8 11 9 -4 12 -2 9 7 -3 8 -11 13
-17 11 -7 -1 -10 2 -7 7 3 5 21 7 39 4 30 -4 31 -4 12 10 -15 12 -17 18 -7 29
6 8 9 18 5 21 -3 4 -1 7 5 7 7 0 15 0 20 1 4 0 10 -10 14 -23 l6 -23 1 23 c1
13 5 21 9 18 9 -5 13 12 13 58 0 28 0 28 21 10 21 -19 21 -19 15 6 -7 28 6 59
17 41 4 -6 2 -11 -5 -11 -8 0 -9 -3 0 -14 6 -7 22 -11 35 -9 48 10 37 -18 -38
-92 -42 -41 -74 -75 -72 -75 3 0 -8 -13 -22 -29 -15 -16 -33 -36 -41 -46 -7
-9 -19 -14 -27 -11 -7 3 -11 0 -9 -7 2 -7 -43 -61 -101 -122 -59 -60 -104
-105 -101 -100 3 6 -4 11 -16 12 -12 0 -16 -1 -9 -4 14 -5 17 -33 3 -33 -5 0
-13 6 -17 13 -8 11 -9 20 -5 52 1 6 6 3 12 -5 8 -12 9 -10 4 9 -5 15 -3 21 3
17 18 -11 41 5 37 25 -2 10 0 21 6 24 5 4 9 1 9 -6 0 -8 4 -8 15 1 30 25 15
-9 -19 -44 -19 -19 -28 -33 -21 -32 16 2 57 37 51 43 -7 8 27 42 36 37 4 -3 8
-1 8 5 0 5 -4 13 -10 16 -18 11 -10 34 17 47 14 7 29 20 31 28 4 12 2 13 -9 4
-23 -18 -51 -26 -43 -11 10 16 -72 -76 -113 -127 -17 -22 -30 -44 -27 -48 3
-4 -1 -5 -9 -3 -7 3 -22 -3 -32 -15 -19 -21 -8 -29 13 -8 16 16 28 2 13 -16
-8 -9 -20 -12 -38 -7 -38 10 -39 26 -3 41 16 7 30 15 30 19 0 6 -42 57 -83
101 -13 14 -24 29 -25 33 -3 17 -75 96 -83 91 -5 -3 -9 1 -9 9 0 8 -7 20 -15
27 -13 11 -14 10 -10 -3 4 -8 2 -18 -3 -21 -6 -3 -15 8 -21 26 -6 17 -14 28
-18 25 -3 -4 -11 -3 -18 3 -8 6 -10 -1 -7 -25 6 -47 -18 -46 -55 2 -15 20 -37
46 -48 58 -40 43 -56 67 -52 78 3 7 7 5 12 -6 6 -14 12 -12 37 20 20 24 28 30
24 17 -4 -14 0 -27 14 -39 16 -14 17 -20 8 -27 -10 -6 -10 -8 0 -8 6 0 12 -8
12 -17 -1 -16 -2 -16 -15 1 -12 16 -18 17 -27 8 -9 -9 -7 -16 8 -31 24 -25 37
-41 53 -66 12 -19 12 -19 8 3 -3 12 -1 22 4 22 4 0 6 7 3 15 -4 8 -10 12 -15
9 -5 -3 -9 -1 -9 4 0 17 28 22 34 6 3 -8 9 -13 13 -12 4 1 19 -4 33 -11 24
-14 24 -14 8 10 -9 13 -24 23 -33 21 -11 -2 -14 1 -9 9 5 8 3 10 -6 4 -10 -6
-12 -4 -6 10 5 15 4 16 -9 5 -17 -14 -21 0 -4 17 8 8 7 13 -2 18 -8 6 -10 4
-4 -5 5 -9 4 -11 -3 -6 -7 4 -12 13 -12 21 0 8 -5 17 -12 21 -7 4 -8 3 -4 -4
4 -7 3 -12 -2 -12 -6 0 -12 7 -16 15 -3 8 -1 15 5 15 5 0 -22 38 -62 85 -39
47 -74 83 -78 80 -3 -4 1 -12 9 -18 15 -12 23 -47 11 -47 -3 0 -12 14 -19 30
-8 17 -17 28 -22 25 -4 -3 -11 2 -14 11 -5 12 -9 14 -20 5 -7 -6 -22 -8 -32
-4 -18 6 -18 5 1 -16 11 -12 21 -18 23 -12 6 17 27 13 46 -8 13 -15 16 -28 11
-52 l-7 -33 24 29 c14 15 27 24 29 19 3 -5 -8 -21 -23 -36 -27 -26 -28 -26
-39 -7 -7 15 -7 24 0 33 14 17 4 46 -16 46 -13 0 -13 -3 -3 -15 9 -10 10 -19
3 -26 -6 -6 -21 7 -43 37 -30 43 -32 50 -22 77 10 26 9 34 -4 49 -17 18 -39
15 -28 -4 4 -7 2 -8 -4 -4 -15 9 -15 39 -1 53 8 8 4 17 -12 32 -23 21 -42 20
-21 -1 7 -7 12 -19 12 -27 0 -11 -4 -10 -15 5 -14 18 -16 18 -28 2 -12 -16
-14 -14 -14 12 0 26 3 28 16 17 14 -11 14 -10 2 6 -13 16 -15 16 -32 1 -11
-10 -19 -12 -19 -6 0 7 5 12 10 12 6 0 10 8 10 19 0 10 8 25 17 32 15 12 16
12 10 -5 -8 -20 10 -49 25 -40 5 3 20 -6 33 -20 13 -14 27 -26 30 -26 4 0 -17
26 -46 59 -52 57 -54 58 -77 43 -22 -14 -25 -14 -45 7 -20 20 -20 21 -3 15 15
-6 17 -4 10 7 -4 8 -9 20 -10 27 -4 25 -14 26 -45 3 -28 -21 -32 -22 -47 -6
-9 9 -26 22 -36 29 -19 13 -19 14 2 25 16 9 27 9 40 1 14 -9 13 -10 -8 -5 -17
4 -21 3 -11 -3 11 -8 11 -11 0 -16 -8 -3 -4 -3 8 -1 12 3 24 1 28 -5 3 -5 12
-10 18 -10 7 0 3 7 -7 15 -11 8 -15 15 -9 15 7 0 15 -4 18 -10 3 -5 11 -10 18
-10 7 0 7 3 2 9 -14 12 -132 76 -123 66 4 -4 2 -15 -5 -24 -11 -14 -10 -14 6
-2 9 8 21 11 24 7 7 -7 -14 -25 -28 -26 -3 0 -14 10 -25 22 -15 17 -16 20 -3
16 9 -4 16 -1 16 7 0 8 -7 11 -15 7 -9 -3 -13 -1 -9 5 9 14 -22 26 -37 14 -11
-10 -51 11 -40 21 2 3 -2 8 -11 12 -9 3 -13 2 -10 -4 3 -6 -1 -7 -10 -4 -9 4
-13 9 -10 12 3 3 -21 14 -52 24 -69 21 -63 20 -63 9z m217 -86 c0 -8 -4 -12
-9 -9 -4 3 -8 9 -8 15 0 5 4 9 8 9 5 0 9 -7 9 -15z m173 -130 c-7 -8 -17 -15
-22 -15 -6 0 -5 7 2 15 7 8 17 15 22 15 6 0 5 -7 -2 -15z m30 -40 c19 -23 8
-25 -14 -4 -11 11 -15 19 -9 19 6 0 16 -7 23 -15z m110 -136 c0 -6 -4 -7 -10
-4 -5 3 -10 11 -10 16 0 6 5 7 10 4 6 -3 10 -11 10 -16z m36 -44 c24 -37 10
-42 -16 -6 -12 17 -17 31 -11 31 6 0 18 -11 27 -25z m1259 -67 c21 -25 28 -29
36 -17 5 8 9 9 9 3 0 -16 -27 -37 -39 -29 -12 7 -51 -29 -51 -46 0 -7 11 0 25
15 14 15 25 23 25 18 0 -15 -41 -53 -51 -47 -12 8 -12 45 1 45 6 0 10 6 10 14
0 8 5 16 11 18 17 6 2 46 -19 51 -15 4 -15 5 0 6 9 0 28 -13 43 -31z m-83 -36
c-7 -2 -10 -7 -7 -12 7 -12 -22 -33 -36 -25 -14 9 31 55 46 47 5 -3 4 -7 -3
-10z m-922 -99 c0 -5 -8 -8 -18 -8 -9 0 -23 -4 -29 -8 -8 -5 -13 -4 -13 3 0 6
-4 9 -10 5 -5 -3 -6 -13 -3 -22 5 -12 2 -12 -15 3 -26 22 -27 26 -6 22 10 -2
19 3 22 11 3 8 0 11 -7 7 -6 -4 -11 -3 -11 3 0 20 19 21 25 1 3 -11 11 -20 16
-20 6 0 5 8 -1 21 -7 11 -9 27 -6 34 2 7 -2 19 -10 25 -8 7 -14 17 -14 22 0 5
18 -13 40 -41 22 -28 40 -54 40 -58z m950 18 c0 -12 -20 -25 -27 -18 -7 7 6
27 18 27 5 0 9 -4 9 -9z m-157 -64 c-4 -7 -8 -15 -8 -19 0 -5 -3 -8 -7 -8 -9
0 -10 9 -2 33 3 9 10 15 15 11 5 -3 6 -11 2 -17z m-591 -192 c3 3 11 -1 18
-10 11 -13 9 -15 -14 -15 -28 0 -34 -14 -13 -34 20 -20 49 -27 63 -15 12 10
19 7 12 -5 -2 -3 8 -16 21 -30 14 -14 19 -26 13 -26 -6 0 -16 8 -21 18 -8 13
-10 14 -11 2 0 -26 17 -42 36 -36 14 4 25 -3 40 -27 l21 -32 -28 -25 c-31 -27
-27 -50 9 -53 23 -1 21 -10 -5 -13 -20 -3 -56 38 -41 47 12 7 -11 69 -24 69
-12 0 -9 -25 4 -38 6 -6 9 -14 6 -17 -12 -12 -62 67 -64 100 0 19 3 32 8 29 4
-3 8 0 8 5 0 6 -9 11 -19 11 -11 0 -22 6 -25 13 -3 8 -8 7 -16 -6 -18 -28 -29
-10 -24 39 5 56 11 69 28 55 7 -6 15 -9 18 -6z m426 -1 c-1 -5 -9 -9 -16 -10
-10 -2 -11 1 -1 12 12 14 24 13 17 -2z m-492 -10 c14 -12 15 -14 3 -11 -13 4
-15 1 -12 -14 3 -10 9 -19 14 -19 5 0 9 -6 9 -12 -1 -14 -60 51 -60 64 0 13
25 9 46 -8z m112 -49 c-3 -3 -9 2 -12 12 -6 14 -5 15 5 6 7 -7 10 -15 7 -18z
m292 -35 c-8 -14 -8 -20 0 -20 6 0 8 -5 4 -11 -4 -8 -9 -7 -15 2 -6 10 -9 11
-9 2 0 -7 -5 -13 -11 -13 -6 0 -1 14 11 30 24 34 36 40 20 10z m-332 -30 c7
-11 9 -20 4 -20 -10 0 -32 22 -32 32 0 15 15 8 28 -12z m224 -152 c6 -15 -1
-38 -10 -38 -4 0 -8 11 -8 25 -2 26 10 34 18 13z m-59 -59 c4 -16 3 -18 -9 -8
-16 13 -19 29 -5 29 5 0 11 -9 14 -21z m-1292 -5419 c4 -294 7 -721 8 -948 1
-410 1 -414 22 -419 15 -4 19 -11 15 -27 -13 -52 -46 -258 -46 -285 0 -36 -1
-36 -42 -15 l-31 16 28 22 c57 46 8 82 -78 56 -47 -14 -57 -7 -32 21 15 16 17
24 8 37 -8 13 -24 16 -72 15 -61 -3 -77 8 -42 26 25 14 34 40 19 58 -9 12 -26
14 -64 10 -52 -5 -53 -5 -69 29 -9 19 -25 60 -35 90 l-19 54 34 0 c33 0 34 2
44 53 6 28 65 349 131 712 67 363 138 751 158 862 28 151 40 197 47 185 6 -10
12 -225 16 -552z"/>
<path d="M20830 10892 c0 -5 7 -15 15 -22 8 -7 15 -8 15 -2 0 5 -7 15 -15 22
-8 7 -15 8 -15 2z"/>
<path d="M21136 10528 c-12 -37 -13 -59 -5 -64 5 -3 9 -10 9 -15 0 -6 -4 -7
-10 -4 -5 3 -10 1 -10 -4 0 -14 10 -14 30 -1 13 8 13 11 1 19 -9 6 -12 21 -9
45 4 36 1 48 -6 24z"/>
<path d="M21188 10443 c24 -5 29 -19 10 -26 -10 -4 -10 -7 0 -18 9 -10 12 -10
12 0 0 7 5 9 10 6 13 -8 13 1 0 26 -6 11 -20 18 -33 18 l-22 -2 23 -4z"/>
<path d="M25890 11481 c-289 -92 -492 -288 -550 -532 -26 -112 -64 -387 -90
-644 -11 -115 -25 -253 -30 -305 -21 -197 -63 -806 -85 -1220 -8 -157 -17
-300 -20 -317 l-6 -33 -1419 0 -1420 0 0 -175 0 -175 1498 0 1498 0 54 -28
c30 -16 159 -82 285 -147 127 -65 284 -146 350 -180 66 -34 224 -115 350 -180
127 -65 374 -193 550 -285 176 -92 417 -217 536 -278 l216 -112 415 0 c228 0
476 3 551 7 l137 6 0 173 0 173 -512 3 -513 3 -307 160 c-279 146 -307 163
-312 189 -3 16 -6 109 -6 207 l0 179 118 0 c136 0 132 -3 151 107 46 259 76
1236 63 2064 l-6 424 -12 -210 c-7 -115 -15 -257 -19 -314 l-7 -103 -39 5
c-34 4 -40 2 -44 -16 -3 -12 -23 -108 -44 -213 -79 -382 -168 -701 -231 -823
-16 -31 -46 -72 -67 -92 -54 -51 -237 -187 -400 -299 l-93 -63 0 -158 c0 -156
0 -158 -22 -161 -13 -2 -121 2 -240 7 l-217 10 -175 90 c-97 50 -175 95 -173
102 1 7 45 59 99 116 l96 103 16 220 c35 478 69 1099 121 2169 8 176 18 375
21 443 4 69 3 122 -2 121 -5 0 -34 -9 -64 -18z m-120 -1011 l0 -80 -210 0
-210 0 0 80 0 80 210 0 210 0 0 -80z"/>
<path d="M22825 11425 c-32 -36 -56 -67 -53 -70 2 -2 35 17 73 44 45 31 70 55
70 67 0 39 -33 24 -90 -41z"/>
<path d="M18810 11450 c-8 -5 -12 -11 -9 -14 3 -3 14 1 25 9 21 16 8 20 -16 5z"/>
<path d="M20235 11430 c3 -5 8 -10 11 -10 2 0 4 5 4 10 0 6 -5 10 -11 10 -5 0
-7 -4 -4 -10z"/>
<path d="M14635 11381 c-66 -31 -138 -82 -202 -143 l-41 -40 23 -63 c61 -160
116 -458 148 -790 3 -28 -6 -67 -29 -130 -215 -590 -294 -809 -294 -817 0 -4
69 -95 153 -201 84 -105 165 -208 180 -229 38 -49 53 -53 51 -14 -1 30 18 132
66 351 12 55 22 107 22 115 0 8 5 20 10 26 13 17 35 100 47 179 26 160 37 708
20 945 -4 63 -13 264 -19 445 -13 395 -13 395 -49 395 -14 0 -53 -13 -86 -29z"/>
<path d="M15983 11306 c4 -9 20 -76 38 -148 33 -143 37 -154 67 -181 19 -17
19 -15 25 120 3 77 1 145 -4 154 -13 26 -59 55 -98 64 -29 6 -33 5 -28 -9z"/>
<path d="M20397 11304 c6 -15 23 -19 23 -5 0 5 -7 11 -14 14 -10 4 -13 1 -9
-9z"/>
<path d="M18597 11299 c-17 -10 -15 -29 4 -29 6 0 7 5 4 10 -3 6 1 10 9 10 9
0 16 5 16 10 0 13 -10 12 -33 -1z"/>
<path d="M19814 11229 l-61 -72 32 -81 33 -81 -33 -625 c-19 -344 -43 -809
-55 -1034 l-22 -408 153 -154 c85 -85 158 -154 164 -154 14 0 225 423 225 452
0 13 -13 116 -30 228 -16 113 -79 548 -140 967 l-110 763 29 74 29 75 -70 60
c-38 34 -73 61 -76 61 -4 0 -35 -32 -68 -71z"/>
<path d="M20496 11292 c-3 -6 -2 -13 4 -17 6 -4 8 -10 5 -15 -8 -13 9 -20 25
-10 13 8 12 13 -6 31 -13 13 -24 17 -28 11z m23 -16 c9 -11 9 -16 -1 -22 -7
-4 -10 -4 -6 1 4 4 3 14 -3 22 -6 7 -9 13 -6 13 2 0 10 -6 16 -14z"/>
<path d="M18496 11254 c-5 -14 -4 -15 9 -4 17 14 19 20 6 20 -5 0 -12 -7 -15
-16z"/>
<path d="M22293 11251 c0 -11 5 -17 9 -15 9 6 1 -182 -9 -200 -3 -6 1 -4 9 4
8 8 20 39 27 67 11 45 10 60 -4 103 -17 52 -35 74 -32 41z"/>
<path d="M18435 11220 c-21 -23 -9 -45 18 -34 25 9 20 26 -5 18 -21 -6 -21 -6
-5 10 16 17 21 26 14 26 -2 0 -12 -9 -22 -20z"/>
<path d="M18569 11213 c-13 -15 -12 -15 9 -4 23 12 28 21 13 21 -5 0 -15 -7
-22 -17z"/>
<path d="M18365 11140 c-3 -5 -1 -10 4 -10 6 0 11 5 11 10 0 6 -2 10 -4 10 -3
0 -8 -4 -11 -10z"/>
<path d="M20640 11117 c0 -5 7 -7 15 -4 8 4 17 2 20 -3 4 -6 1 -10 -5 -10 -6
0 -8 -5 -4 -11 4 -8 9 -7 15 2 8 12 13 6 11 -12 -1 -3 6 -6 14 -6 10 0 7 8
-11 27 -25 26 -55 36 -55 17z"/>
<path d="M10720 11072 c0 -47 1 -48 53 -79 183 -111 392 -160 641 -150 162 6
286 34 417 94 72 33 79 38 79 64 0 16 -3 29 -7 29 -4 0 -44 -16 -90 -36 -106
-45 -247 -81 -355 -90 -209 -17 -489 54 -650 164 -24 16 -53 34 -65 41 -22 11
-23 10 -23 -37z"/>
<path d="M20700 11024 c0 -8 5 -12 10 -9 6 4 16 2 23 -4 19 -15 38 1 21 17
-11 10 -14 10 -14 0 0 -8 -3 -9 -8 -3 -12 16 -32 16 -32 -1z"/>
<path d="M21748 10833 c-10 -2 -18 -11 -18 -19 0 -19 7 -18 37 6 25 19 19 23
-19 13z"/>
<path d="M10153 10805 c3 -16 23 -91 45 -165 75 -248 112 -480 132 -830 20
-337 51 -624 71 -662 6 -10 17 -18 25 -18 17 0 234 141 253 164 6 7 9 21 5 30
-12 31 -34 22 -175 -71 -46 -31 -56 -29 -63 10 -10 58 -25 239 -36 437 -21
391 -52 619 -109 810 -29 98 -104 267 -136 305 -16 19 -16 19 -12 -10z"/>
<path d="M20870 10796 c0 -8 -6 -17 -12 -19 -10 -4 -10 -8 1 -15 9 -7 20 -7
32 1 14 8 15 14 6 29 -14 22 -27 24 -27 4z m12 -28 c-7 -7 -12 -8 -12 -2 0 14
12 26 19 19 2 -3 -1 -11 -7 -17z"/>
<path d="M4308 10778 c-9 -7 -50 -112 -92 -233 -42 -121 -80 -229 -85 -240
-19 -40 -61 -181 -61 -201 0 -12 6 -26 13 -32 13 -10 328 -124 332 -120 2 2
-12 35 -30 74 l-33 71 -72 18 c-39 10 -74 24 -77 31 -7 20 28 125 44 131 14 6
143 -18 177 -32 14 -6 17 -5 12 3 -15 24 -88 53 -136 54 l-48 0 16 39 15 39
101 -6 c92 -5 106 -9 158 -40 31 -19 58 -34 61 -34 4 0 20 59 21 81 1 3 -33
33 -74 66 -85 68 -150 136 -150 158 0 37 76 7 203 -82 43 -30 80 -53 81 -51 8
9 46 134 46 150 0 10 -10 24 -22 32 -21 13 -361 136 -378 136 -3 0 -13 -6 -22
-12z m342 -173 c20 -25 8 -50 -25 -50 -21 0 -31 5 -33 18 -4 21 14 47 33 47 7
0 18 -7 25 -15z"/>
<path d="M21692 10774 c4 -21 22 -23 26 -1 2 10 -3 17 -13 17 -10 0 -15 -6
-13 -16z"/>
<path d="M18137 10751 c3 -10 -1 -22 -8 -27 -9 -5 -11 -2 -6 12 5 14 2 12 -13
-6 -11 -14 -23 -34 -26 -45 -4 -11 -10 -22 -13 -25 -4 -3 -23 -34 -42 -70 -24
-44 -35 -76 -33 -98 2 -29 -1 -33 -17 -29 -14 4 -23 -3 -35 -26 -8 -18 -27
-54 -43 -81 -17 -31 -26 -59 -23 -74 l5 -25 12 29 c7 16 10 35 7 43 -3 9 -1
12 5 8 7 -5 9 1 6 15 -3 15 -2 19 4 11 13 -18 53 -5 45 15 -5 15 -4 15 11 3
11 -9 17 -9 17 -2 0 6 10 10 22 8 17 -1 24 4 26 21 2 13 -3 24 -12 28 -17 6
-22 24 -8 24 5 0 15 -11 22 -25 12 -22 15 -23 23 -10 4 8 12 13 18 10 5 -3 6
1 3 9 -3 9 -14 16 -23 16 -23 0 -31 9 -24 26 6 17 40 18 46 2 3 -8 6 -6 6 5 1
9 -3 17 -7 17 -9 0 -11 13 -15 81 -1 34 1 45 11 42 10 -4 17 20 14 49 -1 3 6
12 15 20 15 11 16 11 10 -7 -6 -16 -3 -15 13 5 21 27 26 55 11 64 -5 4 -7 -2
-4 -13z m-86 -158 c-12 -20 -14 -14 -5 12 4 9 9 14 11 11 3 -2 0 -13 -6 -23z
m-18 -45 c-4 -23 -4 -23 12 -3 l17 20 -4 -20 c-2 -13 -12 -20 -26 -21 -24 -1
-29 15 -10 34 16 16 17 15 11 -10z m-53 -124 c0 -16 -4 -23 -11 -18 -6 3 -15
0 -20 -7 -5 -8 -9 -9 -9 -3 0 6 6 17 14 24 8 6 12 19 9 27 -4 11 -2 14 5 9 7
-4 12 -18 12 -32z m-40 -55 c0 -6 -4 -7 -10 -4 -5 3 -10 11 -10 16 0 6 5 7 10
4 6 -3 10 -11 10 -16z"/>
<path d="M8183 10752 c-10 -6 -174 -336 -335 -671 -87 -183 -96 -164 152 -288
112 -57 208 -103 212 -103 4 0 1 15 -7 34 -8 19 -12 43 -8 53 3 10 2 14 -3 10
-10 -9 -47 91 -38 104 3 5 -3 6 -12 2 -13 -5 -15 -3 -9 7 5 9 4 11 -4 6 -14
-9 -82 14 -75 26 3 4 -3 5 -12 1 -13 -5 -15 -3 -9 7 5 9 4 11 -4 6 -14 -9 -71
12 -71 25 0 5 4 9 9 9 5 0 7 8 4 19 -3 10 0 21 5 25 11 7 140 -31 160 -46 7
-6 15 -8 19 -4 3 3 30 -8 60 -24 42 -24 53 -27 53 -15 0 47 -128 116 -219 118
l-58 2 15 33 c10 20 21 31 30 27 7 -2 10 0 7 5 -8 13 -8 13 56 -6 83 -24 139
-46 135 -53 -3 -4 3 -7 12 -8 9 -1 28 -4 42 -8 20 -5 15 3 -28 44 -35 33 -67
54 -95 61 -23 6 -54 15 -69 19 -17 6 -31 5 -39 -3 -7 -6 -5 0 4 14 10 14 22
35 29 47 10 20 28 24 58 13 3 -1 16 -2 30 -1 20 2 22 0 10 -9 -12 -8 -9 -9 11
-5 14 4 54 1 88 -5 49 -9 76 -21 124 -58 34 -26 67 -53 73 -61 8 -11 16 0 34
48 17 47 20 65 11 74 -6 6 -11 15 -11 21 0 5 3 6 7 3 9 -10 34 13 27 25 -3 5
-14 2 -25 -8 -18 -16 -20 -16 -39 1 -12 10 -19 24 -16 31 3 7 -2 18 -10 25
-12 9 -12 15 -2 28 12 14 11 14 -5 2 -16 -13 -16 -15 -1 -32 10 -11 13 -19 8
-19 -6 0 -32 23 -59 51 -28 29 -43 48 -35 44 8 -5 -2 9 -23 29 -23 23 -36 44
-33 53 3 8 2 11 -4 8 -14 -8 -34 35 -22 47 12 12 55 0 47 -13 -3 -5 0 -6 7 -4
15 6 128 -70 128 -86 0 -5 5 -8 11 -6 6 1 14 -4 17 -12 3 -10 0 -11 -9 -5 -11
6 -12 5 -2 -8 7 -8 10 -18 6 -22 -4 -4 1 -4 11 0 12 5 17 4 13 -3 -3 -5 1 -10
10 -10 12 0 11 5 -7 19 -12 10 -18 18 -13 18 10 0 93 -82 93 -93 0 -3 -6 -4
-14 -1 -8 3 -17 1 -21 -5 -7 -12 22 -10 43 3 20 12 92 165 92 196 0 24 -26 60
-43 60 -4 0 -97 45 -207 100 -188 93 -238 111 -267 92z m423 -278 c8 -30 -11
-54 -41 -54 -30 0 -49 24 -41 54 10 42 72 41 82 0z"/>
<path d="M10735 10743 c2 -10 4 -34 4 -55 1 -36 3 -37 94 -82 142 -71 295
-106 484 -113 215 -8 363 18 540 94 l83 36 -6 36 c-4 20 -8 37 -9 39 -1 2 -29
-9 -61 -24 -228 -102 -455 -136 -667 -99 -160 28 -261 66 -424 162 -37 21 -41
22 -38 6z"/>
<path d="M12180 10746 c0 -22 62 -392 106 -631 107 -580 170 -1120 200 -1702
6 -120 9 -133 25 -133 21 0 21 -1 20 115 -5 436 -115 1392 -216 1881 -46 226
-114 474 -130 474 -3 0 -5 -2 -5 -4z"/>
<path d="M21606 10665 c4 -8 7 -15 9 -15 1 0 8 7 15 15 10 13 9 15 -8 15 -15
0 -20 -5 -16 -15z"/>
<path d="M21445 10520 c-3 -6 1 -7 10 -4 12 5 14 2 8 -12 -6 -17 -5 -17 11 -5
13 11 14 16 4 22 -17 11 -26 11 -33 -1z"/>
<path d="M17976 10501 c-4 -7 -5 -15 -2 -18 9 -9 19 4 14 18 -4 11 -6 11 -12
0z"/>
<path d="M8380 10480 c8 -5 15 -14 15 -20 0 -5 3 -10 8 -10 4 0 10 0 14 0 3 0
-2 9 -12 20 -10 11 -23 20 -29 20 -6 0 -4 -5 4 -10z"/>
<path d="M21426 10453 c-6 -14 -5 -15 5 -6 7 7 10 15 7 18 -3 3 -9 -2 -12 -12z"/>
<path d="M8347 10440 c10 -11 19 -20 20 -20 7 0 -3 26 -12 32 -20 15 -24 8 -8
-12z"/>
<path d="M17904 10274 c-4 -14 -2 -30 3 -35 5 -5 9 4 10 26 1 41 -4 45 -13 9z"/>
<path d="M6235 10220 c-3 -6 1 -7 9 -4 18 7 21 14 7 14 -6 0 -13 -4 -16 -10z"/>
<path d="M8105 10220 c-3 -5 -1 -10 4 -10 6 0 11 5 11 10 0 6 -2 10 -4 10 -3
0 -8 -4 -11 -10z"/>
<path d="M4247 10212 c-36 -5 -24 -22 16 -23 18 0 62 -8 99 -18 65 -17 67 -17
52 0 -26 28 -110 49 -167 41z"/>
<path d="M10761 10126 l3 -44 95 -25 c73 -20 305 -67 328 -67 2 0 3 20 3 45 0
50 9 44 -110 65 -36 6 -118 25 -182 41 -64 16 -122 29 -128 29 -7 0 -10 -17
-9 -44z"/>
<path d="M22660 10015 l0 -105 665 0 665 0 0 105 0 105 -665 0 -665 0 0 -105z"/>
<path d="M11880 10089 c-48 -8 -62 -16 -105 -60 l-50 -51 60 6 c142 14 206 28
201 43 -4 8 -6 28 -6 44 0 33 -4 33 -100 18z"/>
<path d="M8010 10069 c0 -5 5 -7 10 -4 6 3 10 8 10 11 0 2 -4 4 -10 4 -5 0
-10 -5 -10 -11z"/>
<path d="M11326 10025 c3 -22 8 -42 11 -45 2 -3 38 -6 79 -8 l74 -4 61 45 61
46 -146 3 -147 3 7 -40z"/>
<path d="M17716 10007 c-10 -23 -20 -44 -20 -47 -1 -3 -5 -11 -9 -17 -5 -8 -3
-13 6 -13 14 0 42 48 33 57 -2 3 4 13 15 24 10 10 19 25 19 32 0 9 -3 8 -9 -2
-5 -8 -10 -9 -12 -3 -2 6 -13 -8 -23 -31z"/>
<path d="M8651 10024 c0 -11 3 -14 6 -6 3 7 2 16 -1 19 -3 4 -6 -2 -5 -13z"/>
<path d="M11904 9916 c-33 -22 -83 -60 -110 -84 l-49 -42 59 25 c78 33 176 94
176 108 -1 34 -17 33 -76 -7z"/>
<path d="M8171 9864 c0 -11 3 -14 6 -6 3 7 2 16 -1 19 -3 4 -6 -2 -5 -13z"/>
<path d="M11937 9804 c-37 -31 -67 -60 -67 -65 0 -11 100 40 137 69 19 14 20
20 9 34 -11 16 -19 12 -79 -38z"/>
<path d="M8722 9716 c-2 -61 -8 -121 -14 -133 -8 -16 -6 -60 7 -172 9 -82 15
-153 12 -158 -3 -5 1 -19 9 -33 l14 -25 6 22 c3 13 10 21 13 18 4 -2 8 2 8 9
0 6 15 45 33 85 l34 73 -13 196 c-7 109 -16 200 -19 204 -4 4 -25 11 -47 16
l-40 9 -3 -111z"/>
<path d="M10790 9508 c0 -18 4 -38 8 -44 9 -15 117 -37 142 -29 11 3 20 2 20
-3 0 -5 20 -13 45 -16 40 -7 50 -4 91 26 l47 33 -39 7 c-22 4 -96 19 -165 33
-69 14 -131 25 -138 25 -6 0 -11 -15 -11 -32z"/>
<path d="M17490 9531 c0 -6 4 -13 10 -16 6 -3 7 1 4 9 -7 18 -14 21 -14 7z"/>
<path d="M11915 9484 c-49 -7 -115 -16 -145 -19 -44 -5 -63 -14 -95 -42 l-40
-36 92 7 c51 3 140 13 198 22 l105 17 0 33 c0 21 -5 33 -12 33 -7 -1 -53 -8
-103 -15z"/>
<path d="M17470 9485 c0 -7 30 -13 34 -7 3 4 -4 9 -15 9 -10 1 -19 0 -19 -2z"/>
<path d="M7832 9421 c-11 -7 -11 -9 0 -14 9 -3 15 1 15 9 0 8 -1 14 -1 14 -1
0 -7 -4 -14 -9z"/>
<path d="M8218 9293 c7 -3 16 -2 19 1 4 3 -2 6 -13 5 -11 0 -14 -3 -6 -6z"/>
<path d="M7910 9190 c8 -5 22 -9 30 -9 10 0 8 3 -5 9 -27 12 -43 12 -25 0z"/>
<path d="M17457 9163 c-19 -18 2 -75 49 -135 20 -25 22 -25 34 -8 8 11 18 16
23 13 5 -3 4 4 -2 14 -6 11 -7 23 -4 27 3 3 -1 6 -10 6 -9 0 -17 8 -18 18 0 9
-4 4 -9 -11 -5 -16 -6 -36 -3 -45 5 -16 4 -16 -12 0 -13 12 -15 21 -8 30 18
22 25 75 12 84 -9 5 -10 2 -6 -9 5 -14 3 -15 -13 -5 -10 7 -16 16 -14 20 6 10
-10 11 -19 1z m33 -60 c0 -22 -2 -25 -10 -13 -13 20 -13 40 0 40 6 0 10 -12
10 -27z"/>
<path d="M17426 9147 c3 -10 9 -15 12 -12 3 3 0 11 -7 18 -10 9 -11 8 -5 -6z"/>
<path d="M7824 9119 c-4 -7 66 -44 101 -55 44 -13 84 -31 80 -36 -3 -3 6 -3
21 0 17 3 25 1 20 -6 -4 -6 2 -8 14 -5 11 3 20 1 20 -4 0 -17 56 -2 68 18 18
28 8 37 -43 45 -25 3 -45 9 -45 13 0 4 -15 8 -32 9 -18 0 -70 7 -116 15 -46 7
-85 10 -88 6z"/>
<path d="M11925 9049 c-144 -25 -332 -39 -536 -39 -99 0 -179 -2 -179 -4 0 -3
9 -21 21 -40 l21 -36 176 0 c98 0 222 5 277 10 144 14 349 42 357 49 4 4 5 23
1 44 -6 42 2 41 -138 16z"/>
<path d="M13970 8971 c0 -48 32 -240 59 -351 53 -216 133 -375 243 -482 67
-65 195 -150 204 -136 5 7 2 8 -5 3 -9 -5 -11 1 -8 26 3 19 8 61 12 94 4 33
11 76 16 96 19 76 17 104 -12 188 -29 84 -29 84 -212 275 -101 105 -209 218
-240 251 -50 53 -57 57 -57 36z"/>
<path d="M7875 8957 c22 -14 205 -70 211 -64 2 2 7 17 10 34 6 29 5 30 -41 37
-26 3 -82 6 -124 6 -65 0 -73 -2 -56 -13z"/>
<path d="M7836 8891 c-3 -4 6 -6 19 -3 14 2 25 6 25 8 0 8 -39 4 -44 -5z"/>
<path d="M7798 8873 c7 -3 16 -2 19 1 4 3 -2 6 -13 5 -11 0 -14 -3 -6 -6z"/>
<path d="M2641 8855 c-145 -45 -265 -204 -320 -424 -29 -117 -28 -131 9 -131
24 0 31 5 36 28 22 101 51 186 82 247 48 93 140 186 206 208 55 19 143 22 194
8 18 -6 65 -7 104 -4 l71 6 -39 23 c-21 13 -41 23 -44 24 -3 0 -27 7 -54 15
-61 18 -186 18 -245 0z"/>
<path d="M8370 8836 c0 -2 7 -9 15 -16 9 -7 15 -8 15 -2 0 5 -7 12 -15 16 -8
3 -15 4 -15 2z"/>
<path d="M8730 8809 c-13 -9 -13 -10 1 -6 9 3 23 0 30 -6 11 -10 11 -9 0 6 -7
9 -14 17 -15 17 0 0 -8 -5 -16 -11z"/>
<path d="M8740 8781 c0 -6 4 -13 10 -16 6 -3 7 1 4 9 -7 18 -14 21 -14 7z"/>
<path d="M8710 8734 c-17 -9 -20 -14 -9 -14 9 0 22 7 29 15 15 18 13 18 -20
-1z"/>
<path d="M18087 8707 c-3 -9 4 -14 23 -14 23 0 26 3 15 14 -8 7 -18 13 -23 13
-6 0 -12 -6 -15 -13z"/>
<path d="M11945 8619 c-247 -45 -361 -54 -650 -53 -154 1 -311 6 -350 11 -89
13 -107 5 -103 -45 l3 -37 80 -8 c44 -4 231 -6 415 -3 334 4 445 13 645 52
120 23 115 20 115 65 0 47 -1 47 -155 18z"/>
<path d="M3141 8613 l-23 -18 52 -44 c28 -24 52 -42 54 -40 1 2 -12 30 -29 62
l-32 58 -22 -18z"/>
<path d="M15001 8365 c16 -24 43 -74 60 -110 17 -37 34 -63 40 -59 25 15 -33
147 -84 190 -43 37 -50 29 -16 -21z"/>
<path d="M3111 8384 c2 -5 20 -34 40 -64 20 -30 49 -77 65 -105 27 -47 29 -48
32 -24 6 52 -44 133 -110 181 -17 12 -29 17 -27 12z"/>
<path d="M14870 8366 c0 -3 17 -31 38 -63 20 -32 48 -84 61 -116 28 -65 45
-75 35 -19 -9 54 -41 123 -72 155 -27 28 -62 52 -62 43z"/>
<path d="M3044 8283 c18 -27 50 -81 70 -122 21 -40 40 -70 43 -67 3 3 -2 36
-12 73 -14 53 -28 76 -65 115 -59 62 -80 62 -36 1z"/>
<path d="M6399 7938 c0 -106 -11 -587 -24 -1068 l-23 -875 -41 -285 c-22 -157
-43 -304 -46 -327 l-6 -43 92 0 91 0 -7 -140 c-6 -115 -5 -140 6 -140 171 -2
527 -12 535 -15 11 -3 23 65 40 233 l7 62 57 0 57 0 10 328 10 327 62 340 c34
187 77 428 96 535 19 107 65 364 101 570 37 206 70 393 74 415 4 23 9 34 12
25 6 -14 74 -1396 85 -1725 5 -131 -11 -475 -33 -742 l-6 -73 51 0 c28 0 52
-3 52 -7 1 -5 4 -74 8 -155 l6 -147 311 -7 311 -6 6 108 c4 59 7 131 7 161 l0
53 96 0 96 0 -6 403 c-6 450 -19 685 -116 2187 -5 80 -10 157 -10 173 l0 27
-980 0 -980 0 -1 -192z"/>
<path d="M6891 4584 c0 -11 3 -14 6 -6 3 7 2 16 -1 19 -3 4 -6 -2 -5 -13z"/>
<path d="M6351 3923 c-43 -52 -101 -211 -200 -548 l-59 -200 41 -21 c93 -48
287 -124 316 -124 90 0 491 119 491 146 0 33 -52 287 -71 349 -19 62 -21 84
-16 192 l7 122 -33 10 c-17 5 -59 15 -92 22 -33 6 -71 18 -84 26 -15 10 -21
11 -16 3 5 -8 2 -10 -11 -7 -11 3 -68 13 -129 23 -60 9 -113 20 -116 25 -3 5
-15 -3 -28 -18z m274 -447 c26 -11 35 -21 35 -39 0 -31 -16 -37 -88 -37 -68 0
-125 15 -143 36 -11 14 -10 19 10 35 29 24 135 26 186 5z m-6 -117 c35 -12 53
-55 30 -71 -23 -15 -173 -4 -203 15 -54 36 -19 65 80 66 34 1 75 -4 93 -10z
m-11 -110 c36 -12 50 -43 31 -66 -11 -12 -29 -14 -94 -11 -88 6 -135 22 -135
48 0 9 10 22 23 28 29 14 136 15 175 1z"/>
<path d="M2648 3793 c-25 -4 -30 -15 -87 -191 -88 -268 -90 -231 27 -343 165
-157 247 -186 393 -138 76 25 231 88 242 98 4 4 -12 136 -35 294 l-43 287
-235 -1 c-129 -1 -247 -4 -262 -6z m292 -167 c38 -19 45 -27 45 -52 0 -28 -1
-29 -50 -29 -55 1 -141 37 -159 68 -9 14 -7 21 9 33 26 20 94 11 155 -20z m-2
-117 c41 -20 62 -55 47 -78 -16 -26 -127 -3 -186 39 -83 60 30 91 139 39z
m-30 -130 c41 -20 62 -55 47 -78 -17 -28 -150 3 -197 46 -63 57 49 80 150 32z"/>
<path d="M10505 3749 c-9 -14 -34 -93 -90 -289 -71 -251 -80 -291 -65 -300 7
-4 82 -36 167 -70 l155 -62 75 12 c108 17 398 112 426 139 9 9 -34 228 -64
326 -12 39 -24 102 -26 142 l-5 72 -41 5 c-23 3 -136 10 -252 16 -115 6 -224
13 -242 16 -18 2 -34 0 -38 -7z m364 -272 c29 -14 38 -41 21 -62 -25 -30 -191
-15 -229 21 -19 17 -1 40 43 54 37 11 129 4 165 -13z m-2 -119 c31 -15 41 -42
23 -63 -15 -19 -138 -20 -190 -2 -27 9 -35 17 -35 37 0 20 8 28 35 38 41 14
127 9 167 -10z m-10 -110 c31 -15 41 -42 23 -63 -16 -19 -139 -19 -190 -1 -27
10 -35 18 -35 37 0 18 8 27 35 37 41 14 127 9 167 -10z"/>
<path d="M14373 3743 l-162 -3 -21 -58 c-27 -71 -75 -218 -97 -295 l-16 -58
59 -61 c75 -76 161 -143 216 -168 75 -34 133 -25 321 50 98 39 107 45 107 69
0 14 -18 139 -38 276 l-38 250 -85 0 c-46 1 -157 -1 -246 -2z m133 -160 c32
-16 39 -25 39 -49 0 -27 -2 -29 -41 -28 -46 1 -132 40 -148 67 -25 41 77 48
150 10z m-40 -98 c93 -27 124 -95 44 -95 -60 0 -160 51 -160 82 0 9 36 26 56
27 6 1 33 -6 60 -14z m4 -137 c53 -28 69 -50 51 -72 -18 -21 -39 -20 -103 4
-69 26 -103 53 -95 74 10 25 93 21 147 -6z"/>
<path d="M8039 3636 c-2 -2 -78 -7 -169 -9 -91 -3 -172 -8 -180 -11 -8 -3 -24
-6 -35 -8 -16 -3 -22 -16 -32 -76 -14 -87 -43 -358 -43 -407 l0 -35 93 0 c150
0 1292 31 1296 36 2 2 0 14 -6 27 -8 17 -44 36 -138 74 l-126 52 -37 -23 c-39
-24 -96 -46 -118 -46 -25 0 -15 48 17 85 17 19 29 35 25 35 -3 0 -34 -16 -69
-35 -64 -35 -110 -44 -122 -25 -8 14 19 58 53 87 30 26 22 44 -11 23 -128 -81
-200 -55 -106 38 l41 41 -25 33 c-14 18 -39 59 -57 91 l-32 57 -107 0 c-59 0
-110 -2 -112 -4z"/>
<path d="M12030 3630 l-185 -5 -22 -110 c-12 -60 -30 -167 -41 -237 -17 -116
-18 -128 -3 -128 9 0 322 -11 696 -24 374 -14 682 -23 684 -21 15 15 -43 59
-143 107 l-116 57 -56 -26 c-74 -34 -118 -36 -122 -5 -2 14 7 33 27 53 17 17
31 32 31 35 0 2 -26 -10 -59 -26 -72 -37 -131 -41 -131 -8 0 12 17 38 39 59
22 20 37 39 35 42 -3 3 -28 -6 -56 -20 -28 -14 -65 -26 -82 -27 -26 -1 -31 3
-34 25 -2 21 6 35 39 63 l42 36 -27 47 c-15 27 -35 65 -44 85 l-17 38 -135 -2
c-74 -1 -218 -5 -320 -8z"/>
<path d="M4058 3600 c-81 -3 -149 -8 -151 -10 -7 -10 -26 -138 -42 -280 -8
-80 -17 -164 -20 -186 l-4 -42 627 5 c345 3 631 9 635 13 20 18 -15 46 -120
96 l-114 53 -39 -25 c-21 -14 -57 -28 -79 -31 -39 -5 -41 -4 -41 20 0 14 12
39 26 56 14 17 21 31 16 31 -5 0 -15 -6 -21 -14 -17 -20 -110 -58 -127 -52
-26 10 -15 52 23 89 42 43 33 47 -28 12 -24 -14 -59 -25 -76 -25 -46 0 -44 29
7 84 25 27 37 47 30 51 -6 4 -28 42 -50 86 l-40 79 -133 -2 c-72 -1 -198 -4
-279 -8z"/>
<path d="M15867 3560 c-92 -4 -169 -9 -172 -12 -11 -10 -64 -398 -65 -470 0
-9 708 -8 1008 1 l202 6 -16 24 c-9 13 -63 45 -121 72 l-104 49 -38 -26 c-21
-13 -55 -27 -75 -31 -32 -5 -36 -3 -36 15 0 11 11 34 25 50 36 43 31 45 -23
11 -96 -59 -149 -30 -79 45 19 19 32 38 29 40 -2 3 -28 -8 -56 -25 -29 -16
-62 -29 -74 -29 -35 0 -28 43 13 84 l34 35 -33 55 c-18 30 -39 69 -46 86 l-12
30 -97 -2 c-53 -1 -171 -4 -264 -8z"/>
<path d="M24768 3163 l-1898 -3 0 -195 0 -195 2920 0 2920 0 0 194 0 195 -97
3 c-107 5 -968 5 -3845 1z"/>
</g>
</svg>
